<svg width="164" height="49" viewBox="0 0 164 49" fill="none" xmlns="http://www.w3.org/2000/svg">
<path fill-rule="evenodd" clip-rule="evenodd" d="M157.328 48.1688H6.80219C3.49156 48.1688 0.780029 45.4601 0.780029 42.1466V6.02216C0.780029 2.71153 3.48872 0 6.80219 0H157.328C160.638 0 163.35 2.70869 163.35 6.02216V42.1495C163.35 45.4601 160.641 48.1688 157.328 48.1688Z" fill="#FBFBFB"/>
<path d="M68.6301 37.0806C71.47 37.0806 73.7721 34.7874 73.7721 31.9585C73.7721 29.1297 71.47 26.8364 68.6301 26.8364C65.7903 26.8364 63.4882 29.1297 63.4882 31.9585C63.4882 34.7874 65.7903 37.0806 68.6301 37.0806Z" fill="black"/>
<path d="M79.8454 37.0806C82.6852 37.0806 84.9874 34.7874 84.9874 31.9585C84.9874 29.1297 82.6852 26.8364 79.8454 26.8364C77.0056 26.8364 74.7034 29.1297 74.7034 31.9585C74.7034 34.7874 77.0056 37.0806 79.8454 37.0806Z" fill="black"/>
<path fill-rule="evenodd" clip-rule="evenodd" d="M157.328 0.00415039H6.80219C3.49156 0.00415039 0.780029 2.71284 0.780029 6.02631V42.1536C0.780029 45.4642 3.48872 48.1758 6.80219 48.1758H157.328C160.638 48.1758 163.35 45.4671 163.35 42.1536V6.02347C163.35 2.71284 160.641 0.00415039 157.328 0.00415039ZM157.328 0.96667C160.116 0.96667 162.385 3.23527 162.385 6.02347V42.1508C162.385 44.939 160.116 47.2076 157.328 47.2076H6.80219C4.01399 47.2076 1.74539 44.939 1.74539 42.1508V6.02347C1.74539 3.23527 4.01399 0.96667 6.80219 0.96667H157.328Z" fill="#CCCED3"/>
<path fill-rule="evenodd" clip-rule="evenodd" d="M57.8841 12.3357C57.8841 13.3465 57.586 14.1471 56.9869 14.7491C56.3055 15.4617 55.4225 15.8166 54.3322 15.8166C53.2901 15.8166 52.4015 15.456 51.6746 14.732C50.942 14.0108 50.5786 13.1108 50.5786 12.0432C50.5786 10.9728 50.942 10.0756 51.6746 9.35439C52.4015 8.63321 53.2901 8.26978 54.3322 8.26978C54.8489 8.26978 55.3458 8.37199 55.8143 8.57074C56.2856 8.77233 56.6632 9.04206 56.9443 9.3771L56.3083 10.0131C55.8313 9.4424 55.1726 9.15564 54.3293 9.15564C53.5684 9.15564 52.9125 9.42253 52.356 9.95916C51.7995 10.4958 51.5241 11.1886 51.5241 12.0432C51.5241 12.8978 51.8024 13.5906 52.356 14.1273C52.9097 14.6639 53.5684 14.9279 54.3293 14.9279C55.1357 14.9279 55.8086 14.6582 56.3481 14.1216C56.6973 13.7695 56.8989 13.284 56.9529 12.6593H54.3293V11.7905H57.8302C57.8671 11.9779 57.8841 12.1596 57.8841 12.3357Z" fill="#010202"/>
<path d="M57.8841 12.3357C57.8841 13.3465 57.586 14.1471 56.9869 14.7491C56.3055 15.4617 55.4225 15.8166 54.3322 15.8166C53.2901 15.8166 52.4015 15.456 51.6746 14.732C50.942 14.0108 50.5786 13.1108 50.5786 12.0432C50.5786 10.9728 50.942 10.0756 51.6746 9.35439C52.4015 8.63321 53.2901 8.26978 54.3322 8.26978C54.8489 8.26978 55.3458 8.37199 55.8143 8.57074C56.2856 8.77233 56.6632 9.04206 56.9443 9.3771L56.3083 10.0131C55.8313 9.4424 55.1726 9.15564 54.3293 9.15564C53.5684 9.15564 52.9125 9.42253 52.356 9.95916C51.7995 10.4958 51.5241 11.1886 51.5241 12.0432C51.5241 12.8978 51.8024 13.5906 52.356 14.1273C52.9097 14.6639 53.5684 14.9279 54.3293 14.9279C55.1357 14.9279 55.8086 14.6582 56.3481 14.1216C56.6973 13.7695 56.8989 13.284 56.9529 12.6593H54.3293V11.7905H57.8302C57.8671 11.9779 57.8841 12.1596 57.8841 12.3357Z" stroke="#010202" stroke-width="0.2"/>
<path fill-rule="evenodd" clip-rule="evenodd" d="M63.4345 9.31799H60.1438V11.6093H63.108V12.4781H60.1438V14.7694H63.4345V15.6581H59.2153V8.43213H63.4345V9.31799Z" fill="#010202"/>
<path d="M63.4345 9.31799H60.1438V11.6093H63.108V12.4781H60.1438V14.7694H63.4345V15.6581H59.2153V8.43213H63.4345V9.31799Z" stroke="#010202" stroke-width="0.2"/>
<path fill-rule="evenodd" clip-rule="evenodd" d="M67.3473 15.6552H66.4188V9.3179H64.4001V8.4292H69.366V9.3179H67.3473V15.6552Z" fill="#010202"/>
<path d="M67.3473 15.6552H66.4188V9.3179H64.4001V8.4292H69.366V9.3179H67.3473V15.6552Z" stroke="#010202" stroke-width="0.2"/>
<path fill-rule="evenodd" clip-rule="evenodd" d="M72.9572 15.6552H73.8857V8.4292H72.9572V15.6552Z" fill="#010202"/>
<path d="M72.9572 15.6552H73.8857V8.4292H72.9572V15.6552Z" stroke="#010202" stroke-width="0.2"/>
<path fill-rule="evenodd" clip-rule="evenodd" d="M78.0068 15.6552H77.0783V9.3179H75.0596V8.4292H80.0255V9.3179H78.0068V15.6552Z" fill="#010202"/>
<path d="M78.0068 15.6552H77.0783V9.3179H75.0596V8.4292H80.0255V9.3179H78.0068V15.6552Z" stroke="#010202" stroke-width="0.2"/>
<path fill-rule="evenodd" clip-rule="evenodd" d="M84.8091 14.1182C85.3429 14.6606 85.9988 14.9303 86.7739 14.9303C87.5462 14.9303 88.1993 14.6606 88.7359 14.1182C89.2697 13.5759 89.5394 12.886 89.5394 12.0456C89.5394 11.2051 89.2697 10.5123 88.7359 9.97287C88.2021 9.43056 87.5462 9.16083 86.7739 9.16083C85.9988 9.16083 85.3458 9.4334 84.812 9.97287C84.2782 10.5123 84.0084 11.2051 84.0084 12.0456C84.0084 12.886 84.2753 13.5759 84.8091 14.1182ZM89.423 14.723C88.7103 15.4556 87.8301 15.819 86.7739 15.819C85.7177 15.819 84.8347 15.4556 84.1249 14.723C83.415 13.9933 83.0601 13.1018 83.0601 12.0456C83.0601 10.9893 83.415 10.095 84.1249 9.36526C84.8347 8.63556 85.7149 8.26929 86.7711 8.26929C87.8216 8.26929 88.7018 8.63556 89.4145 9.3681C90.1271 10.1006 90.4821 10.9922 90.4821 12.0427C90.4877 13.1018 90.1328 13.9933 89.423 14.723Z" fill="#010202"/>
<path d="M84.8091 14.1182C85.3429 14.6606 85.9988 14.9303 86.7739 14.9303C87.5462 14.9303 88.1993 14.6606 88.7359 14.1182C89.2697 13.5759 89.5394 12.886 89.5394 12.0456C89.5394 11.2051 89.2697 10.5123 88.7359 9.97287C88.2021 9.43056 87.5462 9.16083 86.7739 9.16083C85.9988 9.16083 85.3458 9.4334 84.812 9.97287C84.2782 10.5123 84.0084 11.2051 84.0084 12.0456C84.0084 12.886 84.2753 13.5759 84.8091 14.1182ZM89.423 14.723C88.7103 15.4556 87.8301 15.819 86.7739 15.819C85.7177 15.819 84.8347 15.4556 84.1249 14.723C83.415 13.9933 83.0601 13.1018 83.0601 12.0456C83.0601 10.9893 83.415 10.095 84.1249 9.36526C84.8347 8.63556 85.7149 8.26929 86.7711 8.26929C87.8216 8.26929 88.7018 8.63556 89.4145 9.3681C90.1271 10.1006 90.4821 10.9922 90.4821 12.0427C90.4877 13.1018 90.1328 13.9933 89.423 14.723Z" stroke="#010202" stroke-width="0.2"/>
<path fill-rule="evenodd" clip-rule="evenodd" d="M91.7921 15.6552V8.4292H92.9221L96.4343 14.0482H96.4741L96.4343 12.6569V8.4292H97.3656V15.6552H96.3946L92.7205 9.76083H92.6807L92.7205 11.1549V15.6552H91.7921Z" fill="#010202"/>
<path d="M91.7921 15.6552V8.4292H92.9221L96.4343 14.0482H96.4741L96.4343 12.6569V8.4292H97.3656V15.6552H96.3946L92.7205 9.76083H92.6807L92.7205 11.1549V15.6552H91.7921Z" stroke="#010202" stroke-width="0.2"/>
<path d="M128.818 21.7166H126.572V36.7705H128.818V21.7166Z" fill="black"/>
<path fill-rule="evenodd" clip-rule="evenodd" d="M146.811 27.1421L144.236 33.6696H144.156L141.484 27.1421H139.062L143.071 36.2619L140.786 41.3386H143.128L149.307 27.1421H146.811Z" fill="black"/>
<path fill-rule="evenodd" clip-rule="evenodd" d="M134.337 26.8125C132.71 26.8125 131.027 27.528 130.328 29.118L132.321 29.9499C132.747 29.118 133.542 28.8454 134.374 28.8454C135.535 28.8454 136.717 29.5439 136.736 30.7818V30.938C136.328 30.7052 135.459 30.3588 134.394 30.3588C132.242 30.3588 130.056 31.5399 130.056 33.7461C130.056 35.762 131.819 37.0595 133.795 37.0595C135.303 37.0595 136.137 36.381 136.66 35.5859H136.736V36.7472H138.906V30.9749C138.909 28.3031 136.912 26.8125 134.337 26.8125Z" fill="black"/>
<path fill-rule="evenodd" clip-rule="evenodd" d="M120.394 21.7166H115.011V36.7705H117.256V31.0664H120.394C122.884 31.0664 125.331 29.2634 125.331 26.3901C125.331 23.5195 122.884 21.7166 120.394 21.7166Z" fill="black"/>
<path fill-rule="evenodd" clip-rule="evenodd" d="M93.6107 27.9811H93.5341C93.0287 27.3791 92.0576 26.834 90.8396 26.834C88.2785 26.834 85.9304 29.0855 85.9304 31.976C85.9304 34.8465 88.2785 37.0782 90.8396 37.0782C92.0605 37.0782 93.0315 36.5359 93.5341 35.9169H93.6107V36.6523C93.6107 38.6114 92.563 39.6591 90.8765 39.6591C89.4994 39.6591 88.6448 38.671 88.2956 37.8363L86.3364 38.6512C86.8986 40.0084 88.3921 41.6779 90.8765 41.6779C93.517 41.6779 95.7459 40.1248 95.7459 36.3428V27.1463H93.6107V27.9811Z" fill="black"/>
<path fill-rule="evenodd" clip-rule="evenodd" d="M97.2997 36.7705H99.5512V21.7166H97.2997V36.7705Z" fill="black"/>
<path fill-rule="evenodd" clip-rule="evenodd" d="M109.85 30.0959C109.425 28.9517 108.124 26.8364 105.467 26.8364C102.829 26.8364 100.637 28.9148 100.637 31.9585C100.637 34.8291 102.809 37.0806 105.719 37.0806C108.067 37.0806 109.425 35.6439 109.99 34.8092L108.243 33.6451C107.659 34.4997 106.866 35.0619 105.719 35.0619C104.575 35.0619 103.76 34.5366 103.238 33.5088L110.086 30.6752L109.85 30.0959Z" fill="black"/>
<path fill-rule="evenodd" clip-rule="evenodd" d="M55.291 28.4089V30.581H60.4926C60.3364 31.8047 59.9276 32.6963 59.3086 33.3152C58.5505 34.0733 57.3665 34.9053 55.291 34.9053C52.0882 34.9053 49.5868 32.3243 49.5868 29.1244C49.5868 25.9245 52.0911 23.3436 55.291 23.3436C57.0173 23.3436 58.2779 24.0222 59.2092 24.8939L60.7424 23.3606C59.442 22.1199 57.7157 21.1687 55.291 21.1687C50.9071 21.1687 47.2217 24.7405 47.2217 29.1244C47.2217 33.5083 50.9071 37.0773 55.291 37.0773C57.659 37.0773 59.442 36.3022 60.839 34.8456C62.2728 33.4089 62.7214 31.393 62.7214 29.7633C62.7214 29.2607 62.6845 28.7951 62.605 28.4061L55.291 28.4089Z" fill="black"/>
<path fill-rule="evenodd" clip-rule="evenodd" d="M27.6427 24.0837L13.0572 9.52661C12.8897 9.86449 12.7903 10.279 12.7903 10.7816V37.3915C12.7903 37.8998 12.8925 38.3228 13.0657 38.6607L27.6427 24.0837Z" fill="black"/>
<path fill-rule="evenodd" clip-rule="evenodd" d="M13.0994 9.43233C13.105 9.41814 13.1136 9.40677 13.1221 9.39258C13.1136 9.40677 13.1079 9.42098 13.0994 9.43233Z" fill="black"/>
<path fill-rule="evenodd" clip-rule="evenodd" d="M28.4866 23.2398L32.9784 18.748L15.8517 9.01775C15.3662 8.7395 14.9091 8.60889 14.5002 8.60889C14.293 8.60889 14.1027 8.64579 13.9267 8.7111L28.4866 23.2398Z" fill="black"/>
<path fill-rule="evenodd" clip-rule="evenodd" d="M39.3114 22.3469L34.0615 19.3628L29.3369 24.0874L34.0615 28.8006L39.3114 25.8165C40.9922 24.8654 40.9922 23.3009 39.3114 22.3469Z" fill="black"/>
<path fill-rule="evenodd" clip-rule="evenodd" d="M28.498 24.9353L13.9692 39.4697C14.4888 39.6457 15.139 39.5606 15.8517 39.1574L32.9897 29.4157L28.498 24.9353Z" fill="black"/>
<path fill-rule="evenodd" clip-rule="evenodd" d="M13.0858 38.7048C13.154 38.8298 13.2306 38.9433 13.3186 39.0399C13.2306 38.9377 13.1483 38.8298 13.0858 38.7048Z" fill="black"/>
<path d="M68.6311 28.8564C67.0809 28.8564 65.7407 30.1171 65.7407 31.9598C65.7407 33.7826 67.078 35.066 68.6311 35.066C70.1842 35.066 71.5215 33.7855 71.5215 31.9598C71.5215 30.1171 70.1842 28.8564 68.6311 28.8564Z" fill="white"/>
<path d="M82.7367 31.96C82.7367 30.1173 81.3994 28.8567 79.8463 28.8567C78.296 28.8567 76.9559 30.1173 76.9559 31.96C76.9559 33.7829 78.2932 35.0662 79.8463 35.0662C81.3994 35.0662 82.7367 33.7829 82.7367 31.96Z" fill="white"/>
<path fill-rule="evenodd" clip-rule="evenodd" d="M91.033 35.0656C89.4827 35.0656 88.1823 33.7652 88.1823 31.9821C88.1823 30.1763 89.4827 28.8589 91.0358 28.8589C92.5662 28.8589 93.7701 30.1792 93.7701 31.9821C93.7672 33.7652 92.5634 35.0628 91.033 35.0656Z" fill="#FBFBFB"/>
<path fill-rule="evenodd" clip-rule="evenodd" d="M120.45 28.971H117.253V23.812H120.45C122.131 23.812 123.085 25.2033 123.085 26.3901C123.082 27.5571 122.128 28.971 120.45 28.971Z" fill="white"/>
<path fill-rule="evenodd" clip-rule="evenodd" d="M102.867 31.806C102.81 29.827 104.4 28.8191 105.547 28.8191C106.439 28.8191 107.197 29.2677 107.447 29.9065L102.867 31.806Z" fill="white"/>
<path fill-rule="evenodd" clip-rule="evenodd" d="M134.065 35.0634C133.33 35.0634 132.302 34.6943 132.302 33.7858C132.302 32.6245 133.58 32.1787 134.684 32.1787C135.669 32.1787 136.138 32.3917 136.737 32.6813C136.564 34.0754 135.363 35.0634 134.065 35.0634Z" fill="#FBFBFB"/>
</svg>
