<svg width="225" height="83" viewBox="0 0 225 83" fill="none" xmlns="http://www.w3.org/2000/svg">
<path d="M142.981 11.1535C168.573 14.1194 196.773 22.1247 213.093 34.4262C228.635 46.1078 228.198 61.5553 207.699 71.4606C187.852 81.032 158.166 82.066 134.166 81.997C108.919 81.9127 83.2528 80.0349 59.436 75.2761C38.6997 71.1413 14.8937 64.5637 4.70379 52.2451C-2.318 43.7095 1.26551 34.1339 10.2402 26.4391C33.4671 6.53969 81.6196 -1.55821 119.529 1.69969C145.435 3.91754 167.909 12.3587 183.507 24.6362C184.986 25.8014 181.724 27.0269 180.332 25.8784C149.815 1.88854 95.816 -2.11107 50.6346 10.206C33.3409 14.9291 16.1799 22.5977 8.1215 33.2027C-0.0387443 43.9454 8.01272 54.2312 21.9185 61.2114C42.2606 71.4172 70.539 75.8668 96.5403 78.0497C123.676 80.3476 152.766 81.0209 179.729 76.8208C191.859 74.9334 203.769 71.6259 212.156 65.8437C222.215 58.8757 222.834 49.3989 216.345 41.5354C203.75 26.1892 170.15 16.8754 143.315 13.5214L142.061 13.3714C139.662 13.1003 140.581 10.876 142.981 11.1535Z" fill="white" stroke="white" stroke-width="1.2"/>
</svg>
