<svg width="122" height="32" viewBox="0 0 122 32" fill="none" xmlns="http://www.w3.org/2000/svg">
<path d="M19.4042 14.9809C19.4326 12.8552 20.5466 10.8914 22.3569 9.77736C21.2088 8.13756 19.3558 7.13436 17.3551 7.07184C15.2493 6.85017 13.2116 8.33082 12.1374 8.33082C11.0432 8.33082 9.39205 7.09173 7.61585 7.12868C5.27694 7.20541 3.14834 8.50417 2.00872 10.5475C-0.415442 14.745 1.39202 20.912 3.71388 24.3053C4.87623 25.9678 6.23467 27.8208 8.01087 27.7554C9.75013 27.6844 10.3981 26.647 12.4983 26.647C14.5757 26.647 15.1867 27.7554 16.9999 27.7128C18.8642 27.6844 20.0408 26.0446 21.1605 24.3678C21.996 23.1827 22.6383 21.8754 23.0646 20.4914C20.8479 19.5564 19.407 17.3852 19.4042 14.9809ZM15.9825 4.84093C16.9999 3.6189 17.5001 2.05015 17.3807 0.464355C15.8262 0.626345 14.391 1.37093 13.3594 2.54465C12.342 3.70416 11.8247 5.2189 11.9271 6.75639C13.4986 6.77344 14.9935 6.0658 15.9825 4.84093Z" fill="#010202"/>
<path d="M40.2627 23.7188H34.5589L33.1863 27.7628H30.7706L36.1731 12.7944H38.6826L44.0879 27.7628H41.6296L40.2627 23.7188ZM35.1472 21.8516H39.6687L37.4378 15.2867H37.3753C37.3781 15.2867 35.1472 21.8516 35.1472 21.8516ZM55.7597 22.3063C55.7597 25.6967 53.9437 27.8765 51.2041 27.8765C49.7888 27.9504 48.4559 27.2086 47.771 25.9667H47.7199V31.3721H45.4804V16.8498H47.6488V18.6658H47.6886C48.4019 17.4324 49.7376 16.6907 51.1643 16.7361C53.9352 16.739 55.7597 18.9273 55.7597 22.3063ZM53.4577 22.3063C53.4577 20.0981 52.3153 18.6459 50.5732 18.6459C48.8623 18.6459 47.7114 20.1294 47.7114 22.3092C47.7114 24.5088 48.8623 25.9809 50.5732 25.9809C52.3153 25.9809 53.4577 24.5372 53.4577 22.3063ZM67.7697 22.3063C67.7697 25.6967 65.9537 27.8765 63.2141 27.8765C61.7988 27.9504 60.4659 27.2086 59.781 25.9667H59.7299V31.3721H57.4904V16.8498H59.6588V18.6658H59.6986C60.4148 17.4324 61.7476 16.6907 63.1743 16.7361C65.9452 16.739 67.7697 18.9273 67.7697 22.3063ZM65.4677 22.3063C65.4677 20.0981 64.3253 18.6459 62.5832 18.6459C60.8723 18.6459 59.7213 20.1294 59.7213 22.3092C59.7213 24.5088 60.8723 25.9809 62.5832 25.9809C64.3253 25.9809 65.4677 24.5372 65.4677 22.3063ZM75.7072 23.5937C75.8749 25.0772 77.3157 26.052 79.2852 26.052C81.1722 26.052 82.5306 25.0772 82.5306 23.7386C82.5306 22.5763 81.7122 21.8829 79.7711 21.4054L77.8301 20.9393C75.082 20.2743 73.8059 18.9898 73.8059 16.9038C73.8059 14.3205 76.0567 12.5471 79.2511 12.5471C82.4141 12.5471 84.5825 14.3205 84.6564 16.9038H82.3942C82.2578 15.4089 81.0244 14.5081 79.2198 14.5081C77.4152 14.5081 76.1818 15.4203 76.1818 16.7475C76.1818 17.8075 76.9718 18.4271 78.9015 18.9045L80.5498 19.3109C83.6219 20.0356 84.8951 21.2718 84.8951 23.4601C84.8951 26.2594 82.6642 28.0158 79.1175 28.0158C75.7981 28.0158 73.5558 26.3021 73.4109 23.5966C73.4137 23.5937 75.7072 23.5937 75.7072 23.5937ZM89.7349 14.2693V16.8526H91.8095V18.626H89.7349V24.6424C89.7349 25.5774 90.1498 26.0122 91.0621 26.0122C91.3093 26.0065 91.5538 25.9895 91.7982 25.961V27.723C91.3861 27.7998 90.9712 27.8339 90.5534 27.8282C88.3452 27.8282 87.4813 26.9983 87.4813 24.8839V18.6289H85.8926V16.8555H87.4813V14.2693H89.7349ZM93.0088 22.3063C93.0088 18.8733 95.0323 16.7162 98.184 16.7162C101.347 16.7162 103.362 18.8733 103.362 22.3063C103.362 25.7507 101.358 27.8964 98.184 27.8964C95.0124 27.8992 93.0088 25.7507 93.0088 22.3063ZM101.08 22.3063C101.08 19.9504 100 18.5606 98.184 18.5606C96.3708 18.5606 95.2909 19.9617 95.2909 22.3063C95.2909 24.6708 96.3708 26.0491 98.184 26.0491C100 26.052 101.08 24.6736 101.08 22.3063ZM105.209 16.8498H107.346V18.7056H107.398C107.696 17.5091 108.79 16.6878 110.021 16.7333C110.279 16.7333 110.538 16.7617 110.788 16.8157V18.9102C110.461 18.8107 110.123 18.7653 109.782 18.7738C109.123 18.7482 108.486 19.0097 108.037 19.4928C107.588 19.9759 107.372 20.6296 107.449 21.2861V27.7571H105.206V16.8498H105.209ZM121.118 24.5571C120.817 26.5379 118.887 27.8964 116.421 27.8964C113.246 27.8964 111.277 25.7706 111.277 22.3575C111.277 18.9358 113.258 16.7134 116.327 16.7134C119.345 16.7134 121.243 18.788 121.243 22.096V22.8633H113.536V22.9997C113.465 23.8125 113.744 24.6168 114.306 25.2079C114.869 25.799 115.656 26.1202 116.472 26.0918C117.56 26.1941 118.583 25.5689 118.993 24.5571H121.118ZM113.545 21.3003H119.001C119.041 20.5699 118.777 19.8566 118.268 19.3308C117.759 18.8051 117.054 18.5152 116.324 18.5294C115.588 18.5237 114.88 18.8136 114.357 19.3365C113.837 19.8566 113.542 20.5642 113.545 21.3003Z" fill="#010202"/>
</svg>
