<svg width="42" height="42" viewBox="0 0 42 42" fill="none" xmlns="http://www.w3.org/2000/svg">
<rect x="0.984375" y="0.355469" width="41" height="41" rx="8" fill="#042E59"/>
<g clip-path="url(#clip0_70_279)">
<path d="M29.9677 17.3535C29.9279 16.4502 29.7818 15.8292 29.5726 15.2911C29.3567 14.72 29.0246 14.2086 28.5895 13.7835C28.1644 13.3518 27.6497 13.0163 27.0851 12.8038C26.5439 12.5946 25.9261 12.4485 25.0229 12.4087C24.1128 12.3655 23.824 12.3555 21.5159 12.3555C19.2078 12.3555 18.9189 12.3655 18.0123 12.4053C17.109 12.4451 16.488 12.5913 15.95 12.8004C15.3787 13.0163 14.8673 13.3484 14.4422 13.7835C14.0105 14.2086 13.6752 14.7233 13.4626 15.2879C13.2533 15.8292 13.1072 16.4469 13.0674 17.3501C13.0242 18.2602 13.0142 18.5491 13.0142 20.8571C13.0142 23.1652 13.0242 23.4541 13.064 24.3607C13.1039 25.264 13.2501 25.885 13.4593 26.4231C13.6752 26.9943 14.0105 27.5057 14.4422 27.9308C14.8673 28.3625 15.3821 28.698 15.9467 28.9105C16.488 29.1197 17.1056 29.2658 18.009 29.3056C18.9155 29.3456 19.2046 29.3554 21.5126 29.3554C23.8207 29.3554 24.1096 29.3456 25.0163 29.3056C25.9195 29.2658 26.5405 29.1197 27.0785 28.9105C28.221 28.4687 29.1243 27.5655 29.566 26.4231C29.7751 25.8818 29.9213 25.264 29.9611 24.3607C30.0009 23.4541 30.0109 23.1652 30.0109 20.8571C30.0109 18.5491 30.0076 18.2602 29.9677 17.3535ZM28.4368 24.2943C28.4003 25.1246 28.2608 25.5729 28.1446 25.8718C27.8589 26.6124 27.2711 27.2002 26.5305 27.4858C26.2316 27.6021 25.7801 27.7415 24.9531 27.778C24.0564 27.8179 23.7875 27.8278 21.5193 27.8278C19.251 27.8278 18.9787 27.8179 18.0853 27.778C17.2551 27.7415 16.8067 27.6021 16.5078 27.4858C16.1393 27.3496 15.8038 27.1337 15.5315 26.8515C15.2493 26.5758 15.0334 26.2437 14.8972 25.8752C14.7809 25.5763 14.6415 25.1246 14.605 24.2977C14.5651 23.401 14.5552 23.132 14.5552 20.8637C14.5552 18.5955 14.5651 18.3232 14.605 17.4299C14.6415 16.5997 14.7809 16.1514 14.8972 15.8525C15.0334 15.4838 15.2493 15.1484 15.5349 14.876C15.8104 14.5937 16.1425 14.3779 16.5112 14.2418C16.8101 14.1256 17.2618 13.9861 18.0887 13.9495C18.9853 13.9097 19.2544 13.8997 21.5225 13.8997C23.7941 13.8997 24.063 13.9097 24.9565 13.9495C25.7867 13.9861 26.235 14.1256 26.5339 14.2418C26.9025 14.3779 27.2379 14.5937 27.5102 14.876C27.7925 15.1517 28.0084 15.4838 28.1446 15.8525C28.2608 16.1514 28.4003 16.6029 28.4368 17.4299C28.4767 18.3266 28.4867 18.5955 28.4867 20.8637C28.4867 23.132 28.4767 23.3977 28.4368 24.2943Z" fill="white"/>
<path d="M21.5159 16.4902C19.105 16.4902 17.1489 18.4462 17.1489 20.8573C17.1489 23.2684 19.105 25.2244 21.5159 25.2244C23.927 25.2244 25.883 23.2684 25.883 20.8573C25.883 18.4462 23.927 16.4902 21.5159 16.4902ZM21.5159 23.6901C19.9518 23.6901 18.6831 22.4215 18.6831 20.8573C18.6831 19.2931 19.9518 18.0245 21.5159 18.0245C23.0802 18.0245 24.3487 19.2931 24.3487 20.8573C24.3487 22.4215 23.0802 23.6901 21.5159 23.6901Z" fill="white"/>
<path d="M27.0753 16.3174C27.0753 16.8804 26.6188 17.3369 26.0556 17.3369C25.4926 17.3369 25.0361 16.8804 25.0361 16.3174C25.0361 15.7542 25.4926 15.2979 26.0556 15.2979C26.6188 15.2979 27.0753 15.7542 27.0753 16.3174Z" fill="white"/>
</g>
<defs>
<clipPath id="clip0_70_279">
<rect x="12.9844" y="12.3555" width="17" height="17" rx="4" fill="white"/>
</clipPath>
</defs>
</svg>
