<svg width="163" height="49" viewBox="0 0 163 49" fill="none" xmlns="http://www.w3.org/2000/svg">
<path d="M132.752 0.00568291H11.4956C11.0523 0.00568291 10.6174 0.00568351 10.1769 0.00852544C9.8075 0.0113674 9.44089 0.0170499 9.0686 0.0227338C8.25865 0.0312596 7.45154 0.102308 6.65296 0.235879C5.85438 0.372291 5.08421 0.625224 4.36236 0.991833C3.64051 1.36128 2.98402 1.84157 2.40995 2.4128C1.83589 2.98403 1.3556 3.64335 0.98899 4.36804C0.622381 5.08989 0.369451 5.8629 0.235881 6.66148C0.10231 7.46006 0.028417 8.26433 0.0198912 9.07428C0.00852353 9.44373 0.00568386 9.81318 0 10.1855V38.0449C0.00568386 38.4201 0.00852353 38.781 0.0198912 39.1561C0.028417 39.9632 0.10231 40.7703 0.235881 41.5689C0.369451 42.3675 0.622381 43.1433 0.98899 43.8652C1.3556 44.5842 1.83304 45.2435 2.40995 45.8091C2.98118 46.3831 3.63767 46.8634 4.35952 47.23C5.08137 47.5966 5.85437 47.8524 6.65011 47.9917C7.44869 48.1224 8.2558 48.1934 9.06575 48.2048C9.43805 48.2133 9.80466 48.2162 10.1741 48.2162C10.6146 48.219 11.0523 48.219 11.4928 48.219H151.293C151.725 48.219 152.165 48.219 152.6 48.2162C152.967 48.2162 153.345 48.2105 153.711 48.202C154.519 48.1935 155.326 48.1224 156.121 47.9888C156.923 47.8524 157.696 47.5938 158.421 47.2272C159.142 46.8606 159.802 46.3803 160.37 45.8062C160.944 45.2378 161.424 44.5785 161.794 43.8623C162.158 43.1405 162.411 42.3647 162.541 41.5661C162.675 40.7675 162.749 39.9632 162.766 39.1533C162.771 38.7781 162.771 38.4172 162.771 38.0421C162.78 37.6044 162.78 37.1696 162.78 36.7234V11.4984C162.78 11.0579 162.78 10.6203 162.771 10.1826C162.771 9.81318 162.771 9.44373 162.766 9.07144C162.752 8.26433 162.678 7.45722 162.541 6.65864C162.411 5.86006 162.158 5.08705 161.794 4.3652C161.049 2.91582 159.87 1.73358 158.421 0.98899C157.696 0.622381 156.92 0.369451 156.121 0.233038C155.323 0.0994675 154.519 0.0284192 153.711 0.0198934C153.345 0.0142096 152.967 0.0056823 152.6 0.00284037C152.168 -1.56106e-06 151.728 0 151.293 0H132.752V0.00568291Z" fill="#CCCED3"/>
<path d="M10.1831 47.1661C9.81644 47.1661 9.45836 47.1604 9.09459 47.1547C8.33864 47.1433 7.58552 47.078 6.84094 46.9586C6.14467 46.8393 5.47397 46.6147 4.84306 46.2964C4.22068 45.981 3.6523 45.5689 3.16064 45.0716C2.66046 44.5799 2.24554 44.0115 1.93009 43.3892C1.61179 42.7611 1.39012 42.0875 1.27644 41.3913C1.15424 40.6438 1.08603 39.8879 1.07751 39.1319C1.06898 38.879 1.05762 38.0321 1.05762 38.0321V10.1897C1.05762 10.1897 1.06898 9.3542 1.07751 9.11264C1.08603 8.35669 1.15424 7.60074 1.27644 6.85615C1.39012 6.15988 1.61179 5.4835 1.93293 4.85259C2.24839 4.22736 2.66046 3.65898 3.1578 3.16732C3.6523 2.66999 4.22353 2.25506 4.84591 1.93393C5.47397 1.61847 6.14467 1.3968 6.8381 1.28028C7.58553 1.15808 8.34148 1.08987 9.09743 1.08135L10.1859 1.06714H152.598L153.698 1.08419C154.448 1.09272 155.198 1.15808 155.937 1.28028C156.636 1.39964 157.315 1.62131 157.952 1.94245C159.202 2.58757 160.22 3.60782 160.862 4.85827C161.175 5.48634 161.394 6.15419 161.507 6.84478C161.632 7.59789 161.703 8.35669 161.718 9.11832C161.72 9.45936 161.72 9.82596 161.72 10.1926C161.729 10.6444 161.729 11.0736 161.729 11.5084V36.7334C161.729 37.171 161.729 37.5973 161.72 38.0293C161.72 38.4215 161.72 38.7795 161.715 39.149C161.7 39.8964 161.632 40.6438 161.51 41.3828C161.399 42.0819 161.178 42.7611 160.859 43.3948C160.541 44.0115 160.129 44.5771 159.634 45.0659C159.143 45.5632 158.572 45.981 157.946 46.2993C157.313 46.6204 156.636 46.8449 155.937 46.9615C155.192 47.0808 154.439 47.149 153.683 47.1576C153.331 47.1661 152.962 47.1718 152.601 47.1718L151.293 47.1746L10.1831 47.1661Z" fill="#FBFBFB"/>
<path d="M39.4042 23.9809C39.4326 21.8552 40.5466 19.8914 42.3569 18.7774C41.2088 17.1376 39.3558 16.1344 37.3551 16.0718C35.2493 15.8502 33.2116 17.3308 32.1374 17.3308C31.0432 17.3308 29.3921 16.0917 27.6158 16.1287C25.2769 16.2054 23.1483 17.5042 22.0087 19.5475C19.5846 23.745 21.392 29.912 23.7139 33.3053C24.8762 34.9678 26.2347 36.8208 28.0109 36.7554C29.7501 36.6844 30.3981 35.647 32.4983 35.647C34.5757 35.647 35.1867 36.7554 36.9999 36.7128C38.8642 36.6844 40.0408 35.0446 41.1605 33.3678C41.996 32.1827 42.6383 30.8754 43.0646 29.4914C40.8479 28.5564 39.407 26.3852 39.4042 23.9809ZM35.9825 13.8409C36.9999 12.6189 37.5001 11.0502 37.3807 9.46436C35.8262 9.62635 34.391 10.3709 33.3594 11.5446C32.342 12.7042 31.8247 14.2189 31.9271 15.7564C33.4986 15.7734 34.9935 15.0658 35.9825 13.8409Z" fill="#010202"/>
<path d="M60.2627 32.7188H54.5589L53.1863 36.7628H50.7706L56.1731 21.7944H58.6826L64.0879 36.7628H61.6296L60.2627 32.7188ZM55.1472 30.8516H59.6687L57.4378 24.2867H57.3753C57.3781 24.2867 55.1472 30.8516 55.1472 30.8516ZM75.7597 31.3063C75.7597 34.6967 73.9437 36.8765 71.2041 36.8765C69.7888 36.9504 68.4559 36.2086 67.771 34.9667H67.7199V40.3721H65.4804V25.8498H67.6488V27.6658H67.6886C68.4019 26.4324 69.7376 25.6907 71.1643 25.7361C73.9352 25.739 75.7597 27.9273 75.7597 31.3063ZM73.4577 31.3063C73.4577 29.0981 72.3153 27.6459 70.5732 27.6459C68.8623 27.6459 67.7114 29.1294 67.7114 31.3092C67.7114 33.5088 68.8623 34.9809 70.5732 34.9809C72.3153 34.9809 73.4577 33.5372 73.4577 31.3063ZM87.7697 31.3063C87.7697 34.6967 85.9537 36.8765 83.2141 36.8765C81.7988 36.9504 80.4659 36.2086 79.781 34.9667H79.7299V40.3721H77.4904V25.8498H79.6588V27.6658H79.6986C80.4148 26.4324 81.7476 25.6907 83.1743 25.7361C85.9452 25.739 87.7697 27.9273 87.7697 31.3063ZM85.4677 31.3063C85.4677 29.0981 84.3253 27.6459 82.5832 27.6459C80.8723 27.6459 79.7213 29.1294 79.7213 31.3092C79.7213 33.5088 80.8723 34.9809 82.5832 34.9809C84.3253 34.9809 85.4677 33.5372 85.4677 31.3063ZM95.7072 32.5937C95.8749 34.0772 97.3157 35.052 99.2852 35.052C101.172 35.052 102.531 34.0772 102.531 32.7386C102.531 31.5763 101.712 30.8829 99.7711 30.4054L97.8301 29.9393C95.082 29.2743 93.8059 27.9898 93.8059 25.9038C93.8059 23.3205 96.0567 21.5471 99.2511 21.5471C102.414 21.5471 104.583 23.3205 104.656 25.9038H102.394C102.258 24.4089 101.024 23.5081 99.2198 23.5081C97.4152 23.5081 96.1818 24.4203 96.1818 25.7475C96.1818 26.8075 96.9718 27.4271 98.9015 27.9045L100.55 28.3109C103.622 29.0356 104.895 30.2718 104.895 32.4601C104.895 35.2594 102.664 37.0158 99.1175 37.0158C95.7981 37.0158 93.5558 35.3021 93.4109 32.5966C93.4137 32.5937 95.7072 32.5937 95.7072 32.5937ZM109.735 23.2693V25.8526H111.81V27.626H109.735V33.6424C109.735 34.5774 110.15 35.0122 111.062 35.0122C111.309 35.0065 111.554 34.9895 111.798 34.961V36.723C111.386 36.7998 110.971 36.8339 110.553 36.8282C108.345 36.8282 107.481 35.9983 107.481 33.8839V27.6289H105.893V25.8555H107.481V23.2693H109.735ZM113.009 31.3063C113.009 27.8733 115.032 25.7162 118.184 25.7162C121.347 25.7162 123.362 27.8733 123.362 31.3063C123.362 34.7507 121.358 36.8964 118.184 36.8964C115.012 36.8992 113.009 34.7507 113.009 31.3063ZM121.08 31.3063C121.08 28.9504 120 27.5606 118.184 27.5606C116.371 27.5606 115.291 28.9617 115.291 31.3063C115.291 33.6708 116.371 35.0491 118.184 35.0491C120 35.052 121.08 33.6736 121.08 31.3063ZM125.209 25.8498H127.346V27.7056H127.398C127.696 26.5091 128.79 25.6878 130.021 25.7333C130.279 25.7333 130.538 25.7617 130.788 25.8157V27.9102C130.461 27.8107 130.123 27.7653 129.782 27.7738C129.123 27.7482 128.486 28.0097 128.037 28.4928C127.588 28.9759 127.372 29.6296 127.449 30.2861V36.7571H125.206V25.8498H125.209ZM141.118 33.5571C140.817 35.5379 138.887 36.8964 136.421 36.8964C133.246 36.8964 131.277 34.7706 131.277 31.3575C131.277 27.9358 133.258 25.7134 136.327 25.7134C139.345 25.7134 141.243 27.788 141.243 31.096V31.8633H133.536V31.9997C133.465 32.8125 133.744 33.6168 134.306 34.2079C134.869 34.799 135.656 35.1202 136.472 35.0918C137.56 35.1941 138.583 34.5689 138.993 33.5571H141.118ZM133.545 30.3003H139.001C139.041 29.5699 138.777 28.8566 138.268 28.3308C137.759 27.8051 137.054 27.5152 136.324 27.5294C135.588 27.5237 134.88 27.8136 134.357 28.3365C133.837 28.8566 133.542 29.5642 133.545 30.3003Z" fill="#010202"/>
<path d="M54.869 10.5303C55.821 10.4621 56.7504 10.823 57.4068 11.5164C58.0633 12.207 58.3731 13.1562 58.2537 14.1026C58.2537 16.4017 57.0118 17.7204 54.869 17.7204H52.2715V10.5274H54.869V10.5303ZM53.3884 16.7058H54.744C55.4232 16.7456 56.0853 16.4785 56.5457 15.9783C57.0061 15.4781 57.2164 14.7932 57.117 14.1197C57.2079 13.449 56.9976 12.7726 56.5372 12.2752C56.0768 11.7779 55.4203 11.5108 54.744 11.5477H53.3884V16.7058ZM59.5127 15.0063C59.4189 14.0315 59.885 13.0909 60.7149 12.5765C61.5447 12.0592 62.5962 12.0592 63.4261 12.5765C64.2559 13.0909 64.722 14.0315 64.6282 15.0063C64.722 15.9811 64.2587 16.9218 63.4261 17.439C62.5962 17.9563 61.5447 17.9563 60.712 17.439C59.885 16.9246 59.4189 15.9811 59.5127 15.0063ZM63.5312 15.0063C63.5312 13.8298 63.0026 13.142 62.0761 13.142C61.144 13.142 60.6211 13.8298 60.6211 15.0063C60.6211 16.1943 61.144 16.8763 62.0761 16.8763C63.0026 16.8763 63.5312 16.1886 63.5312 15.0063ZM71.4375 17.7232H70.3263L69.2037 13.7275H69.1184L68.0016 17.7232H66.9017L65.404 12.2951H66.4897L67.4616 16.4358H67.5412L68.6552 12.2951H69.684L70.798 16.4358H70.8833L71.8495 12.2951H72.9209L71.4375 17.7232ZM74.1856 12.2951H75.2172V13.1562H75.2968C75.5753 12.5225 76.2261 12.1331 76.9167 12.19C77.451 12.1502 77.9767 12.3548 78.3405 12.747C78.7071 13.1392 78.8748 13.6763 78.7952 14.2077V17.7204H77.7238V14.4749C77.7238 13.6024 77.3458 13.1704 76.5529 13.1704C76.1892 13.1534 75.8368 13.2955 75.5895 13.5598C75.3394 13.8241 75.2201 14.185 75.257 14.5459V17.7204H74.1856V12.2951ZM80.5032 10.175H81.5746V17.7204H80.5032V10.175ZM83.0609 15.0063C82.9672 14.0315 83.4332 13.0909 84.2659 12.5765C85.0958 12.0592 86.1473 12.0592 86.9771 12.5765C87.807 13.0909 88.2759 14.0315 88.1821 15.0063C88.2759 15.9811 87.8126 16.9218 86.98 17.439C86.1473 17.9563 85.0958 17.9563 84.2659 17.439C83.4332 16.9246 82.9672 15.9811 83.0609 15.0063ZM87.0794 15.0063C87.0794 13.8298 86.5508 13.142 85.6244 13.142C84.6922 13.142 84.1693 13.8298 84.1693 15.0063C84.1693 16.1943 84.6922 16.8763 85.6244 16.8763C86.5508 16.8763 87.0794 16.1886 87.0794 15.0063ZM89.3103 16.1886C89.3103 15.211 90.0379 14.6483 91.3281 14.5687L92.7974 14.4834V14.0145C92.7974 13.4404 92.4194 13.1193 91.6862 13.1193C91.0894 13.1193 90.6745 13.3381 90.5551 13.7218H89.5178C89.6258 12.7896 90.504 12.1928 91.7345 12.1928C93.0958 12.1928 93.8631 12.8692 93.8631 14.0173V17.7261H92.8315V16.9616H92.7462C92.3967 17.5186 91.7715 17.8454 91.115 17.8142C90.6546 17.8625 90.1942 17.7119 89.8503 17.4021C89.5093 17.0923 89.3103 16.6518 89.3103 16.1886ZM92.7974 15.7253V15.2706L91.4702 15.3559C90.7228 15.407 90.3846 15.66 90.3846 16.1403C90.3846 16.6291 90.808 16.9133 91.3906 16.9133C91.7345 16.9474 92.0812 16.8422 92.3455 16.6177C92.6127 16.3904 92.7747 16.0692 92.7974 15.7253ZM95.2727 15.0063C95.2727 13.2898 96.1537 12.2042 97.5264 12.2042C98.2169 12.1729 98.8677 12.5424 99.1917 13.1562H99.2713V10.175H100.343V17.7232H99.3168V16.865H99.2315C98.8848 17.4731 98.2255 17.8397 97.5264 17.8113C96.1452 17.8113 95.2727 16.7257 95.2727 15.0063ZM96.3782 15.0063C96.3782 16.1573 96.921 16.8507 97.8276 16.8507C98.7313 16.8507 99.2884 16.1488 99.2884 15.012C99.2884 13.8809 98.7228 13.1676 97.8276 13.1676C96.9296 13.1676 96.3782 13.8639 96.3782 15.0063ZM104.773 15.0063C104.679 14.0315 105.146 13.0909 105.975 12.5765C106.805 12.0592 107.857 12.0592 108.687 12.5765C109.516 13.0909 109.983 14.0315 109.889 15.0063C109.983 15.9811 109.519 16.9218 108.687 17.439C107.857 17.9563 106.805 17.9563 105.973 17.439C105.143 16.9246 104.677 15.9811 104.773 15.0063ZM108.792 15.0063C108.792 13.8298 108.263 13.142 107.337 13.142C106.405 13.142 105.882 13.8298 105.882 15.0063C105.882 16.1943 106.405 16.8763 107.337 16.8763C108.263 16.8763 108.792 16.1886 108.792 15.0063ZM111.33 12.2951H112.361V13.1562H112.441C112.719 12.5225 113.37 12.1331 114.061 12.19C114.595 12.1502 115.121 12.3548 115.485 12.747C115.851 13.1392 116.016 13.6763 115.939 14.2077V17.7204H114.868V14.4749C114.868 13.6024 114.49 13.1704 113.697 13.1704C113.333 13.1534 112.984 13.2955 112.734 13.5598C112.486 13.8241 112.364 14.185 112.404 14.5459V17.7204H111.332V12.2951H111.33ZM121.993 10.9452V12.3207H123.169V13.2216H121.993V16.0124C121.993 16.5808 122.226 16.8309 122.76 16.8309C122.896 16.8309 123.033 16.8223 123.169 16.8053V17.6976C122.976 17.7317 122.783 17.7516 122.587 17.7545C121.396 17.7545 120.921 17.3339 120.921 16.288V13.2216H120.057V12.3207H120.918V10.9452H121.993ZM124.63 10.175H125.693V13.1648H125.778C126.068 12.5253 126.73 12.136 127.432 12.1928C127.963 12.1644 128.481 12.3747 128.844 12.764C129.205 13.1562 129.373 13.6877 129.302 14.2163V17.7204H128.231V14.4777C128.231 13.6109 127.827 13.1704 127.071 13.1704C126.699 13.1392 126.332 13.2756 126.068 13.5427C125.804 13.807 125.673 14.1765 125.704 14.5488V17.7204H124.633V10.175H124.63ZM135.546 16.2568C135.244 17.2799 134.255 17.942 133.193 17.8255C132.471 17.8454 131.774 17.5442 131.291 17.0042C130.808 16.4642 130.587 15.7395 130.686 15.0234C130.589 14.3044 130.811 13.5768 131.291 13.034C131.772 12.4884 132.462 12.1815 133.19 12.1871C134.699 12.1871 135.611 13.2188 135.611 14.9239V15.2962H131.78V15.3559C131.746 15.7594 131.885 16.1573 132.158 16.4529C132.434 16.7484 132.82 16.9161 133.224 16.9104C133.75 16.9729 134.258 16.7143 134.517 16.2511L135.546 16.2568ZM131.78 14.509H134.523C134.548 14.1395 134.42 13.7786 134.165 13.5115C133.912 13.2415 133.553 13.0966 133.184 13.1022C132.809 13.0966 132.448 13.2443 132.184 13.5115C131.919 13.7729 131.774 14.1339 131.78 14.509Z" fill="#010202"/>
</svg>
