<svg width="100" height="42" viewBox="0 0 100 42" fill="none" xmlns="http://www.w3.org/2000/svg">
<path d="M26.2994 24.3211L22.0576 18.8279C21.7324 18.3966 21.4001 17.9724 21.0678 17.5483C20.3926 16.6839 19.9524 15.6597 19.7897 14.575C19.6271 13.4903 19.7476 12.382 20.1395 11.3576C20.5315 10.3332 21.1816 9.42752 22.0268 8.72847C22.872 8.02941 23.8835 7.5607 24.9632 7.36783C25.8127 7.185 26.69 7.17273 27.5442 7.33171C28.3984 7.49069 29.2125 7.81777 29.9393 8.29396C30.6661 8.77015 31.291 9.38597 31.7779 10.1057C32.2647 10.8253 32.6038 11.6345 32.7753 12.4863C32.9576 13.3555 32.9457 14.2543 32.7403 15.1183C32.535 15.9823 32.1414 16.7904 31.5876 17.4846C29.8979 19.6904 28.1729 21.8679 26.462 24.0595C26.4031 24.1437 26.3488 24.231 26.2994 24.3211ZM29.9898 13.2074C30.0107 12.4747 29.8134 11.7523 29.4229 11.132C29.0323 10.5117 28.4662 10.0215 27.7965 9.72358C27.1267 9.42569 26.3836 9.33361 25.6613 9.459C24.9391 9.58439 24.2705 9.92161 23.7404 10.4278C23.2102 10.9341 22.8425 11.5864 22.6839 12.3021C22.5254 13.0177 22.5831 13.7644 22.8498 14.4472C23.1164 15.1299 23.58 15.718 24.1817 16.1368C24.7833 16.5555 25.4958 16.786 26.2287 16.7989C26.713 16.8159 27.1957 16.7358 27.6486 16.5635C28.1015 16.3912 28.5153 16.13 28.8658 15.7954C29.2162 15.4608 29.4962 15.0594 29.6892 14.615C29.8823 14.1705 29.9845 13.692 29.9898 13.2074Z" fill="#E69901"/>
<path d="M86.3217 41.5004C80.4396 41.147 75.9291 38.8776 73.1931 34.1055C72.1539 32.2886 72.4862 30.9382 74.1051 30.1394C75.7241 29.3405 77.2229 29.8778 78.347 31.5957C82.3697 37.803 90.2383 37.7888 94.36 31.5533C95.3144 30.0969 96.5304 29.3475 98.4039 30.1394C100.051 30.8463 100.461 32.2603 99.4573 34.0631C96.7283 38.8422 92.2178 41.1187 86.3217 41.5004Z" fill="#042E59"/>
<path d="M0 5.73457V1.69067H19.0883V5.73457H11.9549V24.9006H7.1051V5.73457H0Z" fill="#E69901"/>
<path d="M42.1641 24.8725L37.4061 7.4668H42.2913L45.0061 19.1672H45.1829L48.0107 7.47385H52.804L55.6319 19.0965H55.7875L58.4386 7.47385H63.3097L58.5871 24.8796H53.4757L50.4852 13.9285H50.266L47.2755 24.8796L42.1641 24.8725Z" fill="#E69901"/>
<path d="M65.8546 24.8726V7.46687H70.457V10.5351H70.6338C70.9643 9.55899 71.5985 8.71421 72.4436 8.12435C73.3408 7.5216 74.4031 7.21277 75.4836 7.24063C76.5678 7.20859 77.6344 7.5204 78.5307 8.13142C79.357 8.70821 79.9509 9.56031 80.2062 10.5351H80.39C80.7419 9.53988 81.4227 8.69443 82.3201 8.13848C83.3137 7.52141 84.4665 7.20926 85.6358 7.24063C86.3667 7.21204 87.0957 7.33481 87.777 7.60124C88.4583 7.86767 89.0772 8.27202 89.5948 8.78891C90.1287 9.37939 90.5389 10.0708 90.8012 10.8225C91.0635 11.5741 91.1725 12.3706 91.1219 13.1651V24.8726H86.3074V14.1195C86.3372 13.7229 86.2841 13.3245 86.1514 12.9496C86.0187 12.5747 85.8094 12.2315 85.5368 11.942C85.0102 11.4638 84.3177 11.2101 83.6068 11.235C83.2247 11.2148 82.8429 11.279 82.4885 11.4232C82.1341 11.5674 81.8159 11.788 81.5565 12.0693C81.0579 12.6872 80.806 13.468 80.8495 14.2609V24.8655H76.1694V14.0134C76.2117 13.268 75.9576 12.5361 75.4624 11.9773C75.2132 11.7225 74.9133 11.5229 74.582 11.3914C74.2507 11.2598 73.8955 11.1994 73.5394 11.2138C73.0394 11.2114 72.5491 11.3511 72.1255 11.6168C71.6901 11.8918 71.3381 12.2805 71.1074 12.7409C70.8489 13.2634 70.7203 13.8406 70.7327 14.4235V24.8726H65.8546Z" fill="#042E59"/>
<path d="M97.3785 5.22563C96.6965 5.24147 96.0359 4.98739 95.5404 4.51865C95.2977 4.30045 95.1042 4.03321 94.9726 3.73461C94.8409 3.43602 94.7742 3.11287 94.7768 2.78656C94.774 2.46332 94.8408 2.14327 94.9725 1.84808C95.1043 1.5529 95.2979 1.28949 95.5404 1.07569C96.0419 0.612622 96.6994 0.355469 97.382 0.355469C98.0646 0.355469 98.7222 0.612622 99.2237 1.07569C99.4661 1.28949 99.6598 1.5529 99.7915 1.84808C99.9233 2.14327 99.99 2.46332 99.9872 2.78656C99.9898 3.11287 99.9231 3.43602 99.7915 3.73461C99.6599 4.03321 99.4663 4.30045 99.2237 4.51865C98.7264 4.98913 98.0629 5.24335 97.3785 5.22563ZM94.9536 24.8725V7.46675H99.7822V24.8725H94.9536Z" fill="#042E59"/>
</svg>
