<svg width="100" height="42" viewBox="0 0 100 42" fill="none" xmlns="http://www.w3.org/2000/svg">
<path d="M26.2994 23.9656L22.0576 18.4724C21.7324 18.0412 21.4001 17.617 21.0678 17.1928C20.3926 16.3284 19.9524 15.3042 19.7897 14.2195C19.6271 13.1348 19.7476 12.0265 20.1395 11.0021C20.5315 9.97774 21.1816 9.07206 22.0268 8.373C22.872 7.67394 23.8835 7.20523 24.9632 7.01236C25.8127 6.82953 26.69 6.81726 27.5442 6.97624C28.3984 7.13523 29.2125 7.46231 29.9393 7.93849C30.6661 8.41468 31.291 9.0305 31.7779 9.75018C32.2647 10.4699 32.6038 11.2791 32.7753 12.1308C32.9576 13 32.9457 13.8988 32.7403 14.7628C32.535 15.6269 32.1414 16.4349 31.5876 17.1292C29.8979 19.3349 28.1729 21.5124 26.462 23.704C26.4031 23.7882 26.3488 23.8755 26.2994 23.9656ZM29.9898 12.852C30.0107 12.1193 29.8134 11.3969 29.4229 10.7766C29.0323 10.1562 28.4662 9.666 27.7965 9.36811C27.1267 9.07022 26.3836 8.97814 25.6613 9.10353C24.9391 9.22893 24.2705 9.56614 23.7404 10.0724C23.2102 10.5786 22.8425 11.231 22.6839 11.9466C22.5254 12.6623 22.5831 13.4089 22.8498 14.0917C23.1164 14.7745 23.58 15.3626 24.1817 15.7813C24.7833 16.2 25.4958 16.4305 26.2287 16.4434C26.713 16.4604 27.1957 16.3804 27.6486 16.208C28.1015 16.0357 28.5153 15.7746 28.8658 15.4399C29.2162 15.1053 29.4962 14.7039 29.6892 14.2595C29.8823 13.8151 29.9845 13.3365 29.9898 12.852Z" fill="#E69901"/>
<path d="M86.3216 41.145C80.4396 40.7915 75.9291 38.5221 73.1931 33.75C72.1538 31.9331 72.4861 30.5828 74.1051 29.7839C75.7241 28.985 77.2228 29.5223 78.3469 31.2402C82.3696 37.4475 90.2382 37.4334 94.3599 31.1978C95.3143 29.7415 96.5303 28.9921 98.4038 29.7839C100.051 30.4909 100.461 31.9048 99.4572 33.7076C96.7283 38.4868 92.2178 40.7632 86.3216 41.145Z" fill="white"/>
<path d="M0 5.3791V1.33521H19.0883V5.3791H11.9549V24.5452H7.1051V5.3791H0Z" fill="#E69901"/>
<path d="M42.1641 24.517L37.4061 7.11133H42.2913L45.0061 18.8118H45.1829L48.0107 7.11838H52.804L55.6319 18.7411H55.7875L58.4386 7.11838H63.3097L58.5871 24.5241H53.4757L50.4852 13.5731H50.266L47.2755 24.5241L42.1641 24.517Z" fill="#E69901"/>
<path d="M65.8546 24.5171V7.1114H70.457V10.1797H70.6338C70.9643 9.20352 71.5985 8.35874 72.4436 7.76888C73.3408 7.16614 74.4031 6.8573 75.4836 6.88516C76.5678 6.85312 77.6344 7.16493 78.5307 7.77596C79.357 8.35274 79.9509 9.20484 80.2062 10.1797H80.39C80.7419 9.18441 81.4227 8.33896 82.3201 7.78301C83.3137 7.16594 84.4665 6.85379 85.6358 6.88516C86.3667 6.85657 87.0957 6.97934 87.777 7.24577C88.4583 7.5122 89.0772 7.91655 89.5948 8.43344C90.1287 9.02392 90.5389 9.71536 90.8012 10.467C91.0635 11.2186 91.1725 12.0152 91.1219 12.8096V24.5171H86.3074V13.764C86.3372 13.3674 86.2841 12.969 86.1514 12.5941C86.0187 12.2192 85.8094 11.8761 85.5368 11.5865C85.0102 11.1083 84.3177 10.8547 83.6068 10.8796C83.2247 10.8593 82.8429 10.9236 82.4885 11.0678C82.1341 11.212 81.8159 11.4325 81.5565 11.7138C81.0579 12.3317 80.806 13.1126 80.8495 13.9054V24.51H76.1694V13.658C76.2117 12.9126 75.9576 12.1806 75.4624 11.6219C75.2132 11.3671 74.9133 11.1674 74.582 11.0359C74.2507 10.9044 73.8955 10.8439 73.5394 10.8584C73.0394 10.8559 72.5491 10.9957 72.1255 11.2613C71.6901 11.5364 71.3381 11.925 71.1074 12.3854C70.8489 12.9079 70.7203 13.4852 70.7327 14.068V24.5171H65.8546Z" fill="white"/>
<path d="M97.3785 4.87016C96.6965 4.886 96.0359 4.63192 95.5404 4.16319C95.2977 3.94498 95.1042 3.67774 94.9726 3.37914C94.8409 3.08055 94.7742 2.7574 94.7768 2.43109C94.774 2.10785 94.8408 1.7878 94.9725 1.49261C95.1043 1.19743 95.2979 0.93402 95.5404 0.720222C96.0419 0.257154 96.6994 0 97.382 0C98.0646 0 98.7222 0.257154 99.2237 0.720222C99.4661 0.93402 99.6598 1.19743 99.7915 1.49261C99.9233 1.7878 99.99 2.10785 99.9872 2.43109C99.9898 2.7574 99.9231 3.08055 99.7915 3.37914C99.6599 3.67774 99.4663 3.94498 99.2237 4.16319C98.7264 4.63367 98.0629 4.88788 97.3785 4.87016ZM94.9536 24.517V7.11128H99.7822V24.517H94.9536Z" fill="white"/>
</svg>
