<svg width="70" height="71" viewBox="0 0 70 71" fill="none" xmlns="http://www.w3.org/2000/svg">
<path d="M7.40943 17.2567C7.40943 17.3468 7.40943 17.437 7.40943 17.5299C7.10422 17.7911 6.79807 18.0377 6.47905 18.281C6.39129 18.3491 6.30353 18.4172 6.21311 18.4874C5.84399 18.7728 5.47625 19.0463 5.08775 19.3053C6.31098 20.3184 7.28009 20.5703 8.86048 20.5173C9.06173 20.5144 9.26297 20.5116 9.46421 20.5088C11.5381 20.4597 13.5592 20.0841 15.5832 19.6536C16.3205 19.5247 16.3205 19.5247 16.6962 19.5784C16.9085 19.7962 16.9085 19.7962 17.0888 20.1049C17.1577 20.2193 17.2266 20.3337 17.2975 20.4515C17.4055 20.6404 17.4055 20.6404 17.5156 20.8331C18.1819 21.9971 18.1819 21.9971 18.9773 23.0737C20.4439 24.9177 20.419 26.722 20.3055 28.9882C20.2368 30.7624 20.578 31.6426 21.7493 32.9622C21.9166 33.1861 22.0817 33.4117 22.2432 33.6397C22.5536 34.0612 22.8655 34.4816 23.1774 34.902C23.4971 35.3329 23.8121 35.7668 24.1238 36.2036C24.2683 36.4035 24.4129 36.6034 24.5575 36.8033C24.6225 36.8963 24.6875 36.9893 24.7545 37.0851C25.1653 37.6478 25.2616 37.7345 25.9829 37.8787C25.9829 37.1126 25.9829 36.3464 25.9829 35.5571C26.073 35.5571 26.1632 35.5571 26.2561 35.5571C26.5096 36.0769 26.7624 36.597 27.0146 37.1175C27.1005 37.2945 27.1866 37.4715 27.2729 37.6484C27.3968 37.9024 27.52 38.1567 27.6431 38.4112C27.7175 38.5642 27.7918 38.7173 27.8685 38.8749C28.0315 39.2444 28.0315 39.2444 28.0315 39.5176C28.1938 39.5491 28.3561 39.5806 28.5233 39.6131C29.1353 39.7327 29.7464 39.857 30.3573 39.9821C30.7626 40.0638 31.1686 40.1412 31.5748 40.2186C31.8391 40.2721 32.1033 40.3258 32.3675 40.3797C32.4909 40.4021 32.6142 40.4245 32.7413 40.4475C34.0528 40.7245 34.7458 41.5645 35.6025 42.5307C36.5034 43.4927 37.5739 43.8242 38.8205 44.161C38.735 44.7549 38.5195 45.2154 38.2475 45.748C38.1601 45.9225 38.0728 46.0971 37.9856 46.2716C37.8483 46.5442 37.7104 46.8164 37.571 47.0879C37.4361 47.3516 37.3039 47.6166 37.172 47.8819C37.0521 48.1179 37.0521 48.1179 36.9298 48.3586C36.6933 49.0264 36.8109 49.4134 37.1034 50.044C37.185 50.1903 37.2666 50.3367 37.3507 50.4874C37.3947 50.5676 37.4387 50.6477 37.484 50.7303C37.6239 50.9852 37.7654 51.2392 37.9072 51.493C38.5351 52.6184 39.1106 53.7166 39.5033 54.95C39.557 55.1127 39.6108 55.2754 39.6661 55.443C39.8152 55.8993 39.9555 56.3578 40.0922 56.8179C40.149 57.0062 40.2077 57.1939 40.2682 57.381C40.7375 58.8361 40.7541 59.8684 40.3227 61.3687C40.2755 61.5447 40.2286 61.7208 40.1821 61.897C40.0868 62.2555 39.9896 62.6135 39.8911 62.9711C39.4203 64.6951 39.0668 66.2645 39.3293 68.059C39.3924 68.5218 39.4149 68.9859 39.4436 69.452C39.4632 69.7166 39.4831 69.9812 39.5033 70.2458C37.9825 70.5507 36.4905 70.5678 34.9453 70.5616C34.8179 70.5613 34.6906 70.5611 34.5594 70.5608C32.6283 70.5545 30.7514 70.4755 28.8509 70.1092C28.728 70.0872 28.6051 70.0652 28.4784 70.0426C20.3345 68.5684 12.4238 63.9206 7.40943 57.2716C7.34295 57.1839 7.27647 57.0961 7.20798 57.0056C5.61888 54.8951 4.31543 52.6871 3.17577 50.3066C3.11451 50.1814 3.05324 50.0563 2.99012 49.9273C1.13137 46.0106 0.0309484 41.4871 0.00692509 37.1474C0.00548817 36.972 0.00548817 36.972 0.00402223 36.7931C0.00164681 36.418 0.000764759 36.0431 0.000523382 35.668C0.000431233 35.5396 0.000339083 35.4113 0.000244141 35.279C0.00245643 33.3389 0.076337 31.4576 0.444375 29.548C0.466359 29.4251 0.488343 29.3022 0.510993 29.1756C1.09 25.9768 2.15371 22.9027 3.58548 19.9881C3.63466 19.8859 3.68384 19.7836 3.73452 19.6783C3.87539 19.3874 4.01969 19.0985 4.1659 18.8102C4.22837 18.6827 4.22837 18.6827 4.2921 18.5527C4.48467 18.1872 4.63038 17.9662 4.99439 17.7624C5.42022 17.6509 5.84473 17.5415 6.2742 17.4445C6.42964 17.4089 6.58509 17.3734 6.74525 17.3367C7.13629 17.2567 7.13629 17.2567 7.40943 17.2567Z" fill="white"/>
<path d="M42.6444 7.56024C43.2375 7.6441 43.8287 7.7361 44.4198 7.83338C44.5765 7.8568 44.7331 7.88021 44.8946 7.90433C46.032 8.11078 46.5437 8.47761 47.2877 9.33565C47.5578 9.57741 47.8341 9.80951 48.113 10.0409C48.8977 10.777 49.225 11.429 49.5497 12.4426C49.6328 12.6875 49.716 12.9324 49.7993 13.1772C49.9218 13.5443 50.0403 13.9114 50.1536 14.2815C50.4859 15.2738 51.1356 15.7873 51.9311 16.4373C52.1598 16.6409 52.3875 16.8457 52.614 17.0518C52.7264 17.1522 52.8389 17.2525 52.9548 17.3559C53.1879 17.5675 53.4172 17.7833 53.643 18.0025C54.3655 18.6926 54.9161 19.0692 55.8916 19.3052C55.9253 19.2102 55.9589 19.1151 55.9935 19.0172C56.191 18.5619 56.4411 18.1793 56.7196 17.7688C56.8169 17.6245 56.9143 17.4801 57.0146 17.3314C57.2573 16.9836 57.2573 16.9836 57.3939 16.847C57.6786 16.8075 57.9645 16.7765 58.2507 16.7488C58.4283 16.7314 58.6059 16.714 58.7889 16.696C58.9783 16.678 59.1677 16.6601 59.3571 16.6421C59.5411 16.6242 59.7252 16.6063 59.9092 16.5882C60.8314 16.4987 61.7536 16.4124 62.6771 16.3375C63.162 16.281 63.6166 16.1604 64.0858 16.0276C64.7392 16.927 65.3239 17.841 65.8527 18.8187C65.9232 18.9491 65.9938 19.0794 66.0664 19.2137C68.4275 23.6471 69.946 28.8423 69.9908 33.8873C69.9922 34.012 69.9935 34.1367 69.9949 34.2652C70.0182 37.021 69.9853 39.6782 69.412 42.3855C69.3865 42.5119 69.3609 42.6382 69.3345 42.7684C68.1066 48.7425 65.2405 54.4425 61.0813 58.9105C60.9299 59.0864 60.7791 59.2628 60.6289 59.4397C59.5214 60.7058 58.3141 61.8416 56.9842 62.871C56.8567 62.9703 56.7293 63.0696 56.5979 63.1719C53.1891 65.7786 47.6856 69.5629 43.1906 69.5629C43.3854 67.4597 43.3854 67.4597 43.9964 66.8426C44.3339 66.5958 44.679 66.3774 45.0375 66.1625C45.1657 66.0804 45.2938 65.9984 45.4259 65.9138C45.9707 65.5648 46.521 65.2249 47.0714 64.8849C47.4741 64.6342 47.8733 64.3786 48.2725 64.1225C48.458 64.0117 48.458 64.0117 48.6472 63.8986C49.9179 63.0811 50.1941 61.8838 50.5809 60.494C50.8578 59.5654 51.1149 58.8648 51.9955 58.3875C52.2576 58.2686 52.5196 58.1603 52.7889 58.059C52.8851 58.0222 52.9813 57.9853 53.0804 57.9473C53.355 57.8466 53.6332 57.7558 53.9125 57.669C55.2214 57.2119 55.7939 56.5688 56.4121 55.3405C56.5814 54.9874 56.7445 54.6318 56.9074 54.2756C57.0198 54.0416 57.1328 53.8078 57.2464 53.5744C57.4676 53.1177 57.6853 52.6597 57.9001 52.1999C58.3496 51.2407 58.8277 50.2958 59.3059 49.3506C59.1794 49.3103 59.0529 49.2701 58.9226 49.2286C58.439 49.061 58.0299 48.8264 57.5987 48.5568C56.9729 48.1691 56.3442 47.7937 55.6985 47.4397C54.163 46.5874 52.9353 45.7393 51.8273 44.3693C51.5927 44.0806 51.3434 43.8058 51.0946 43.5293C50.8786 43.282 50.6994 43.0638 50.5366 42.7776C50.1742 42.3986 49.766 42.3992 49.268 42.3428C47.9793 42.1654 46.7424 41.845 45.4894 41.4995C43.393 40.9314 41.6149 40.6301 39.5305 41.3234C39.0655 41.4363 38.853 41.469 38.4107 41.293C38.0453 40.9606 38.0453 40.9606 37.6852 40.5504C37.6231 40.4816 37.5611 40.4129 37.4971 40.342C37.045 39.8301 37.045 39.8301 37.045 39.5176C36.9528 39.501 36.8605 39.4845 36.7655 39.4674C36.5827 39.4331 36.5827 39.4331 36.3963 39.3981C36.2759 39.3759 36.1555 39.3537 36.0314 39.3308C35.6793 39.2444 35.6793 39.2444 35.133 38.9713C35.1781 38.1601 35.2232 37.3488 35.2696 36.513C34.0519 36.4543 34.0519 36.4543 32.9874 36.9323C32.7229 37.237 32.485 37.5407 32.2651 37.8787C32.1749 37.8337 32.0848 37.7886 31.9919 37.7422C31.8777 37.3658 31.7808 36.998 31.6932 36.6155C31.6672 36.5111 31.6412 36.4067 31.6145 36.2991C31.3545 35.1883 31.3545 35.1883 31.5822 34.7376C31.932 34.4853 32.3073 34.3146 32.7004 34.1401C32.8036 34.09 32.9069 34.0398 33.0133 33.9881C33.6373 33.7013 34.045 33.5628 34.7233 33.7816C35.0795 33.9288 35.4259 34.0929 35.7732 34.2596C36.6526 34.666 37.4291 34.8887 38.4107 34.8742C38.4359 34.7224 38.4611 34.5707 38.487 34.4143C38.7524 32.9929 39.1232 32.2016 40.1861 31.1868C40.3889 30.948 40.588 30.706 40.7836 30.4613C41.2557 29.8786 41.7337 29.3015 42.2176 28.7286C42.281 28.6531 42.3445 28.5777 42.4098 28.5001C43.24 27.519 43.24 27.519 43.8579 27.2022C43.9637 27.1475 44.0695 27.0929 44.1785 27.0366C44.2924 26.9789 44.4064 26.9213 44.5238 26.8619C44.6419 26.8019 44.76 26.7418 44.8816 26.68C45.1315 26.5534 45.3817 26.4272 45.6321 26.3015C46.0132 26.1095 46.3926 25.9143 46.7721 25.7189C47.0156 25.5961 47.2591 25.4735 47.5027 25.3511C47.6153 25.2927 47.7279 25.2342 47.8438 25.174C48.9236 24.6403 49.7624 24.7313 50.9495 24.8961C51.125 24.9198 51.3005 24.9436 51.4814 24.9681C51.9311 25.0412 51.9311 25.0412 52.3408 25.1777C52.439 24.472 52.5216 23.8094 52.1119 23.1962C52.0108 23.0914 51.9098 22.9865 51.8057 22.8785C51.6939 22.7614 51.582 22.6443 51.4668 22.5236C51.0221 22.0848 50.5666 21.6588 50.1084 21.2342C48.5925 19.8108 47.6591 18.3575 46.878 16.4373C46.7132 16.4353 46.5485 16.4334 46.3787 16.4314C46.1582 16.425 45.9377 16.4184 45.7172 16.4117C45.6091 16.4109 45.501 16.4101 45.3896 16.4093C44.788 16.3871 44.3925 16.3205 43.8948 15.9721C43.2152 15.4986 42.4942 15.4187 41.6884 15.302C41.1926 15.226 40.6969 15.1499 40.1861 15.0716C40.0058 16.1983 39.8256 17.325 39.6398 18.4858C39.0112 18.6115 38.769 18.617 38.1733 18.4864C37.9548 18.4395 37.9548 18.4395 37.7319 18.3917C37.5812 18.3579 37.4306 18.3242 37.2755 18.2895C37.1222 18.2563 36.969 18.2231 36.8111 18.1889C36.4335 18.107 36.0563 18.0238 35.6793 17.9395C35.6331 17.658 35.5878 17.3763 35.5427 17.0945C35.5174 16.9377 35.492 16.7808 35.4659 16.6192C35.4151 16.2319 35.3944 15.8709 35.4062 15.4813C35.7816 15.3895 36.1571 15.2986 36.5329 15.2081C36.639 15.1821 36.7452 15.156 36.8546 15.1292C36.9575 15.1045 37.0605 15.0799 37.1666 15.0545C37.3082 15.0202 37.3082 15.0202 37.4527 14.9852C37.7279 14.935 37.7279 14.935 38.2741 14.935C38.2875 14.8551 38.3009 14.7752 38.3147 14.6928C38.5322 13.444 38.8135 12.2104 39.0936 10.9745C39.5665 10.8082 39.8069 10.8642 40.2608 11.0636C40.3761 11.1133 40.4914 11.163 40.6102 11.2143C40.7294 11.2675 40.8486 11.3208 40.9714 11.3757C41.0927 11.4284 41.214 11.4811 41.3389 11.5354C41.6381 11.6657 41.9365 11.7979 42.2347 11.9305C42.1896 12.5164 42.1445 13.1022 42.0981 13.7059C42.2615 13.7594 42.4248 13.8129 42.5931 13.8681C43.0021 14.0031 43.4067 14.1451 43.8105 14.2948C43.9778 14.3568 44.145 14.4188 44.3173 14.4826C44.4758 14.5423 44.6342 14.602 44.7975 14.6635C45.3128 14.8209 45.6877 14.9036 46.1882 14.6789C46.2666 14.6282 46.3449 14.5775 46.4256 14.5253C46.878 14.2522 46.878 14.2522 47.1512 14.2522C46.8485 13.7045 46.4841 13.2554 46.0586 12.8011C45.9903 12.7263 45.9219 12.6515 45.8515 12.5744C45.3918 12.0786 44.9122 11.6144 44.4128 11.1585C44.2943 11.0476 44.1757 10.9368 44.0535 10.8225C43.8178 10.603 43.5785 10.3872 43.3355 10.1758C42.5287 9.41669 42.5287 9.41669 42.4649 8.75369C42.4982 8.34518 42.5531 7.9595 42.6444 7.56024Z" fill="white"/>
<path d="M33.3054 0.562645C33.4265 0.561308 33.5476 0.55997 33.6724 0.558592C36.4354 0.534379 39.1085 0.576883 41.825 1.14147C41.9641 1.17001 42.1031 1.19855 42.2464 1.22796C44.877 1.78709 47.4992 2.61638 49.8826 3.87286C49.6095 4.146 49.6095 4.146 49.227 4.18228C48.2373 4.17787 47.2973 4.11151 46.3233 3.93261C45.2872 3.7783 44.8007 3.98312 43.9504 4.55571C43.8471 4.62395 43.7438 4.69219 43.6374 4.7625C42.9187 5.25018 42.3295 5.75466 41.825 6.46769C41.1999 7.2617 41.1999 7.2617 40.4702 7.35709C40.2372 7.38198 40.0042 7.40608 39.7711 7.42954C39.6463 7.44212 39.5216 7.4547 39.393 7.46766C39.1274 7.49405 38.8617 7.52009 38.596 7.54581C38.3279 7.57218 38.0598 7.59958 37.7919 7.6281C36.2848 7.78845 34.8855 7.87605 33.3852 7.6287C32.8258 7.53768 32.8258 7.53768 32.2651 7.56024C32.0374 7.76619 32.0374 7.76619 31.8746 8.05851C31.8097 8.16203 31.7447 8.26554 31.6778 8.37219C31.5798 8.53645 31.5798 8.53645 31.4799 8.70402C31.4124 8.81246 31.345 8.92091 31.2755 9.03264C30.9338 9.58425 30.9338 9.58425 30.6263 10.1551C30.2585 10.2112 30.2585 10.2112 29.7695 10.2415C29.5919 10.2529 29.4143 10.2644 29.2313 10.2762C29.1378 10.2815 29.0443 10.2869 28.948 10.2924C28.6689 10.3084 28.3899 10.3262 28.111 10.3445C27.5838 10.377 27.0568 10.4038 26.5292 10.4282C26.3224 10.4405 26.3224 10.4405 26.1114 10.4529C25.3086 10.4821 24.7015 10.3472 23.9512 10.0673C23.0418 9.73468 22.2454 9.44638 21.3198 9.84886C20.8048 10.1248 20.3266 10.4457 19.8662 10.8051C19.0993 11.2352 18.1686 11.3025 17.3081 11.4055C14.1336 11.8129 11.1398 12.4542 8.09229 13.4327C8.09229 12.8636 8.40141 12.6363 8.77513 12.2463C8.84786 12.1693 8.92059 12.0923 8.99553 12.013C9.23932 11.7565 9.48507 11.502 9.73112 11.2476C9.81734 11.1577 9.90356 11.0678 9.99239 10.9751C11.1258 9.79662 12.2801 8.69876 13.5984 7.72936C13.8229 7.56416 14.0448 7.39598 14.2667 7.22736C19.6484 3.20058 26.5507 0.624921 33.3054 0.562645ZM39.172 2.61386C39.0216 2.69464 38.8711 2.77543 38.7161 2.85866C38.5546 2.9463 38.393 3.03399 38.2315 3.12173C38.151 3.16524 38.0705 3.20874 37.9875 3.25357C36.8305 3.87893 35.689 4.52013 34.5868 5.23856C35.1194 5.81061 35.5126 6.18261 36.3174 6.21429C36.5033 6.20198 36.6889 6.18675 36.8744 6.16894C37.021 6.15597 37.021 6.15597 37.1706 6.14273C37.4477 6.11664 37.7244 6.08741 38.0011 6.05798C38.1162 6.05182 38.2313 6.04565 38.3499 6.03931C39.3792 5.92084 40.142 5.11663 40.9038 4.47429C41.1544 4.27276 41.4136 4.09133 41.6788 3.90967C41.8172 3.80739 41.9556 3.7051 42.0981 3.59972C42.0981 3.50959 42.0981 3.41945 42.0981 3.32658C41.7856 3.14377 41.4726 2.9618 41.1592 2.7803C41.0259 2.70214 41.0259 2.70214 40.8898 2.62239C40.1132 2.17404 39.9484 2.19639 39.172 2.61386ZM29.0435 4.55304C28.0958 4.89474 27.4888 5.05356 26.5457 4.6512C26.19 4.53394 26.0546 4.54933 25.7098 4.69228C25.3674 4.92571 25.3674 4.92571 25.0269 5.21295C24.9114 5.30679 24.796 5.40062 24.677 5.49729C24.369 5.76329 24.0811 6.03927 23.7978 6.33112C24.0888 6.52027 24.3815 6.70403 24.677 6.88593C24.7579 6.93919 24.8388 6.99244 24.9221 7.04731C25.7837 7.56797 26.4246 7.4102 27.3692 7.18411C27.845 7.06226 28.3181 6.93278 28.7911 6.80058C28.9549 6.7556 29.1188 6.71062 29.2875 6.66427C29.6885 6.55405 30.0892 6.44298 30.4897 6.33112C30.3063 5.86309 30.1062 5.4285 29.8581 4.99103C29.7972 4.88311 29.7363 4.77519 29.6735 4.66401C29.6274 4.5832 29.5813 4.50239 29.5337 4.41914C29.3554 4.41108 29.3554 4.41108 29.0435 4.55304Z" fill="white"/>
</svg>
