<svg width="70" height="71" viewBox="0 0 70 71" fill="none" xmlns="http://www.w3.org/2000/svg">
<path d="M58.8848 30.9559C60.7658 32.3897 61.9832 34.2164 62.3126 36.583C62.3261 36.9996 62.3326 37.4121 62.331 37.8285C62.3312 38.0129 62.3312 38.0129 62.3314 38.2009C62.3316 38.6114 62.3308 39.0218 62.3299 39.4323C62.3299 39.7271 62.3299 40.0219 62.33 40.3166C62.33 41.116 62.3292 41.9155 62.3281 42.7149C62.3271 43.5506 62.327 44.3864 62.3269 45.2221C62.3264 46.8043 62.3251 48.3866 62.3236 49.9688C62.3219 51.7703 62.3211 53.5718 62.3203 55.3733C62.3187 59.0787 62.316 62.7841 62.3126 66.4896C62.4973 66.4864 62.682 66.4832 62.8724 66.4799C63.5599 66.4688 64.2475 66.4618 64.9352 66.4561C65.2323 66.453 65.5295 66.4488 65.8267 66.4435C66.2547 66.4361 66.6826 66.4327 67.1107 66.43C67.2428 66.4268 67.3749 66.4237 67.511 66.4204C68.3479 66.4201 68.82 66.5422 69.4841 67.0999C69.9243 67.6282 70.0241 68.0899 69.9955 68.7795C69.8799 69.4347 69.5173 69.8588 68.9992 70.2499C68.4663 70.5059 68.0072 70.5204 67.4287 70.5148C67.3148 70.5155 67.2008 70.5162 67.0834 70.517C66.7003 70.5188 66.3173 70.5173 65.9342 70.5159C65.6573 70.5166 65.3803 70.5174 65.1034 70.5184C64.3414 70.5206 63.5795 70.52 62.8175 70.5189C61.9961 70.5181 61.1747 70.52 60.3533 70.5216C58.7438 70.5242 57.1342 70.5244 55.5247 70.5236C54.2168 70.5229 52.9089 70.5232 51.6011 70.524C51.4151 70.5241 51.2291 70.5242 51.0375 70.5243C50.6598 70.5246 50.282 70.5248 49.9043 70.525C46.3598 70.5271 42.8153 70.5263 39.2708 70.5245C36.0263 70.523 32.7817 70.525 29.5372 70.5286C26.2076 70.5324 22.8782 70.5338 19.5486 70.5328C17.6786 70.5323 15.8085 70.5326 13.9384 70.5353C12.3465 70.5375 10.7546 70.5377 9.16269 70.535C8.35013 70.5337 7.53761 70.5334 6.72506 70.5357C5.9816 70.5378 5.23821 70.5371 4.49476 70.5341C4.22543 70.5336 3.95611 70.534 3.68679 70.5356C3.32127 70.5376 2.95596 70.5359 2.59046 70.5332C2.48537 70.5346 2.38028 70.5361 2.27201 70.5376C1.52063 70.5262 1.09758 70.3108 0.515923 69.8464C0.0756922 69.3182 -0.0241003 68.8565 0.00452697 68.1668C0.118951 67.5184 0.481289 67.0977 0.981835 66.6956C1.61865 66.4038 2.18233 66.4326 2.87443 66.4449C3.0122 66.4455 3.14998 66.4462 3.29193 66.4468C3.73037 66.4494 4.16869 66.4551 4.60709 66.461C4.90501 66.4633 5.20293 66.4654 5.50084 66.4672C6.22973 66.4723 6.95854 66.4802 7.68739 66.4896C7.68637 66.3866 7.68536 66.2836 7.68431 66.1775C7.67412 65.0982 7.66725 64.0188 7.66225 62.9395C7.65995 62.5375 7.65684 62.1356 7.65286 61.7337C7.64726 61.1534 7.6447 60.5731 7.64269 59.9928C7.64033 59.8154 7.63796 59.6379 7.63553 59.4551C7.63505 57.0973 8.32961 54.943 9.97616 53.2147C11.7711 51.5827 13.8355 50.859 16.2482 50.8843C18.4358 51.0378 20.1134 51.9288 21.7252 53.3673C23.0546 54.9894 23.8835 56.7078 23.8787 58.8332C23.8786 59.0042 23.8786 59.1752 23.8786 59.3514C23.8778 59.5335 23.8771 59.7157 23.8762 59.9034C23.8759 60.186 23.8759 60.186 23.8756 60.4742C23.8747 61.0743 23.8728 61.6744 23.8709 62.2744C23.87 62.6819 23.8694 63.0894 23.8688 63.4969C23.8671 64.4945 23.8645 65.492 23.8613 66.4896C24.8684 66.4896 25.8755 66.4896 26.913 66.4896C26.9094 65.7829 26.9094 65.7829 26.9058 65.0619C26.8982 63.5004 26.8931 61.9389 26.8893 60.3774C26.8869 59.4312 26.8837 58.485 26.8785 57.5388C26.8735 56.6247 26.8708 55.7105 26.8696 54.7963C26.8688 54.4486 26.8671 54.1009 26.8646 53.7532C26.8435 50.6753 27.0752 48.0504 29.3544 45.7381C31.3321 44.0891 33.5003 43.4216 36.0681 43.6019C38.1259 43.9473 39.9778 44.8561 41.3191 46.4927C42.6007 48.3357 43.1128 49.9441 43.1043 52.1814C43.1043 52.3364 43.1043 52.4913 43.1044 52.6509C43.1043 53.1611 43.1031 53.6713 43.1019 54.1815C43.1016 54.536 43.1014 54.8905 43.1012 55.2449C43.1006 56.1766 43.0991 57.1082 43.0975 58.0398C43.0959 58.991 43.0952 59.9422 43.0944 60.8934C43.0928 62.7588 43.0901 64.6242 43.087 66.4896C44.094 66.4896 45.1011 66.4896 46.1387 66.4896C46.1371 65.9337 46.1371 65.9337 46.1356 65.3665C46.1262 61.8732 46.1194 58.3798 46.1149 54.8865C46.1126 53.0905 46.1094 51.2946 46.1041 49.4986C46.0996 47.9328 46.0966 46.367 46.0956 44.8012C46.095 43.9725 46.0936 43.1439 46.0903 42.3152C46.0871 41.5342 46.0862 40.7532 46.0869 39.9722C46.0868 39.6866 46.0859 39.401 46.0841 39.1153C46.0674 36.2731 46.5021 33.8084 48.58 31.7003C51.5435 29.2295 55.6012 28.7201 58.8848 30.9559Z" fill="white"/>
<path d="M30.6934 5.03618C31.6361 5.84957 32.41 6.7605 33.1687 7.74455C33.3189 7.92629 33.3189 7.92629 33.4721 8.1117C36.3587 11.7677 37.3843 16.6876 36.8734 21.243C36.333 25.4475 34.5379 28.9356 31.6429 32.0055C31.5494 32.1087 31.456 32.212 31.3598 32.3184C28.145 35.7388 23.5821 37.1949 19.0243 37.5414C14.8891 37.6589 10.434 36.3337 7.22937 33.6839C7.14878 33.6189 7.06818 33.554 6.98515 33.4871C5.96267 32.6626 4.98053 31.8317 4.17768 30.7848C3.99948 30.555 3.99948 30.555 3.81768 30.3205C0.83888 26.3759 -0.440151 21.5293 0.134792 16.6195C0.817405 11.7273 3.3998 7.18671 7.34388 4.18437C14.478 -1.03147 23.9192 -0.451793 30.6934 5.03618ZM9.06038 8.04972C8.95751 8.13056 8.85465 8.2114 8.74866 8.29469C6.41229 10.1834 5.07426 12.9851 4.33027 15.8315C4.2927 15.9718 4.25513 16.112 4.21642 16.2565C3.42464 19.7895 4.30703 23.6656 6.18631 26.7061C8.49897 30.1456 11.7285 32.4823 15.8081 33.3042C15.9479 33.3288 16.0878 33.3534 16.2319 33.3787C16.3387 33.3986 16.4455 33.4185 16.5555 33.4389C20.2453 34.0143 24.0843 32.8769 27.0957 30.7443C27.508 30.4154 27.8994 30.0752 28.286 29.7167C28.408 29.6052 28.5299 29.4937 28.6556 29.3788C31.3747 26.7828 32.8204 23.1995 33.0441 19.4864C33.1343 15.4773 31.5916 11.7875 28.8738 8.87385C26.243 6.15566 22.6266 4.59545 18.8486 4.49673C15.2064 4.45664 11.8256 5.66661 9.06038 8.04972Z" fill="white"/>
<path d="M62.1602 3.01448C62.9339 3.54487 63.2649 4.04128 63.5656 4.93311C63.605 5.04356 63.6443 5.15401 63.6849 5.26781C63.767 5.5006 63.8477 5.73389 63.9271 5.96764C64.0476 6.32136 64.1737 6.67277 64.3006 7.02429C65.2275 9.65345 65.2275 9.65345 64.7351 10.9393C64.2218 11.5039 63.6764 11.7353 62.9231 11.7785C62.273 11.75 61.8888 11.5359 61.3973 11.1015C61.2376 10.8 61.0839 10.4951 60.9395 10.1859C60.8844 10.2817 60.8293 10.3774 60.7725 10.4761C58.5087 14.4012 56.143 18.2363 53.3103 21.7824C53.2326 21.8799 53.1549 21.9774 53.0749 22.0779C52.1744 23.2053 51.2667 24.321 50.2884 25.3824C50.1066 25.5817 49.9258 25.7822 49.7515 25.9882C48.9025 26.9866 47.9741 27.9045 47.0465 28.829C46.7594 29.1153 46.473 29.4024 46.1868 29.6896C45.2813 30.5957 44.3741 31.4864 43.3923 32.3107C43.2452 32.4397 43.0981 32.5687 42.9465 32.7017C41.4743 33.9705 39.9229 35.1277 38.357 36.2779C38.2568 36.3517 38.1566 36.4255 38.0534 36.5016C30.1783 42.2844 14.822 51.3911 4.33071 49.8579C3.70703 49.5221 3.3343 49.1574 3.11004 48.4846C3.04966 47.6847 3.13507 47.181 3.56779 46.501C4.06096 46.0431 4.49917 45.9458 5.15562 45.8359C5.45005 45.7845 5.45005 45.7845 5.75043 45.732C5.85462 45.7145 5.95882 45.6969 6.06617 45.6788C11.4642 44.7611 16.7126 43.2184 21.7253 41.008C21.943 40.9125 21.943 40.9125 22.1651 40.8151C26.2152 39.0272 30.1386 36.9754 33.7795 34.4469C33.9248 34.3467 33.9248 34.3467 34.073 34.2444C35.5946 33.1931 37.0702 32.0984 38.5096 30.9374C38.6569 30.8198 38.8043 30.7022 38.956 30.581C39.8111 29.8917 40.6324 29.1734 41.4391 28.4281C41.7642 28.1316 42.0929 27.8437 42.4267 27.5573C43.219 26.8661 43.9572 26.1224 44.6988 25.3776C44.8372 25.2398 44.9756 25.1021 45.1181 24.9601C45.8973 24.1798 46.645 23.3849 47.3595 22.5453C47.5098 22.3729 47.6601 22.2006 47.8107 22.0285C48.8245 20.8601 49.7944 19.668 50.7164 18.4255C50.7913 18.3249 50.8661 18.2242 50.9433 18.1206C53.1563 15.1348 55.3076 11.9896 56.9723 8.6601C56.8204 8.63768 56.8204 8.63768 56.6654 8.6148C55.8584 8.47814 55.2575 8.37235 54.6836 7.7446C54.3359 7.17563 54.3663 6.71361 54.4422 6.0757C54.6075 5.48999 54.8287 5.09007 55.3632 4.78283C55.5829 4.69997 55.5829 4.69997 55.8071 4.61542C55.9705 4.55263 56.1338 4.48984 56.3022 4.42514C56.5584 4.3311 56.5584 4.3311 56.8197 4.23515C56.9844 4.17207 57.1492 4.10898 57.3188 4.04398C57.8212 3.85371 58.326 3.67174 58.832 3.49131C59.0014 3.42797 59.1708 3.36464 59.3454 3.29938C61.2206 2.63403 61.2206 2.63403 62.1602 3.01448Z" fill="white"/>
<path d="M19.4363 7.89716C20.0592 8.26828 20.285 8.59082 20.5044 9.27042C20.5342 9.71208 20.5342 9.71208 20.5235 10.1573C20.5207 10.3062 20.518 10.4551 20.5151 10.6085C20.5116 10.7208 20.508 10.8331 20.5044 10.9489C20.6303 10.9803 20.7562 11.0118 20.8859 11.0442C22.1426 11.5379 22.9114 12.3716 23.5561 13.5428C23.7968 14.2648 23.7892 14.8483 23.5275 15.5645C23.2038 16.0556 23.0382 16.2312 22.488 16.4419C21.8375 16.5512 21.2387 16.6018 20.6528 16.2631C20.3797 16.0312 20.1356 15.7909 19.8941 15.5264C19.3987 14.9756 19.3987 14.9756 18.7688 14.6204C18.2379 14.6078 17.8009 14.7491 17.3001 14.916C17.2498 15.3189 17.1994 15.7217 17.1475 16.1367C17.8515 16.6614 18.4765 16.896 19.3219 17.1094C21.1303 17.6097 22.6067 18.4126 23.5752 20.0974C24.2193 21.5187 24.1486 22.9315 23.6252 24.3763C23.108 25.4441 22.3506 26.2481 21.2673 26.7318C20.9193 26.8822 20.9193 26.8822 20.657 27.1228C20.5409 27.561 20.5236 27.9535 20.5175 28.4061C20.4942 29.1085 20.1784 29.436 19.6938 29.9075C19.0737 30.3113 18.6236 30.3792 17.9009 30.2317C17.2928 29.9471 16.8404 29.5603 16.5372 28.9538C16.5264 28.6425 16.5244 28.3308 16.5277 28.0192C16.529 27.852 16.5304 27.6849 16.5318 27.5126C16.5336 27.384 16.5354 27.2553 16.5372 27.1228C16.4113 27.0913 16.2854 27.0599 16.1557 27.0274C14.7882 26.4902 13.9804 25.5186 13.3329 24.2237C13.2665 23.5734 13.2611 23.0156 13.5237 22.4118C13.9911 21.8442 14.2584 21.662 14.9923 21.4963C15.6361 21.4427 15.9983 21.5565 16.5372 21.9349C16.8307 22.2432 17.1055 22.5595 17.374 22.8898C17.7416 23.3123 17.9156 23.3087 18.4922 23.3654C19.0289 23.3586 19.1322 23.3074 19.5984 22.9744C19.9208 22.5774 19.9208 22.5774 19.9417 22.1543C19.6233 21.5629 19.1251 21.3945 18.5208 21.172C18.2272 21.0846 17.9335 20.9973 17.6392 20.9122C15.8684 20.3973 14.3846 19.5909 13.4474 17.9361C12.9117 16.7848 12.8245 15.5732 13.1339 14.3409C13.6695 12.8758 14.5414 11.8294 15.9269 11.1014C16.2738 11.0007 16.2738 11.0007 16.5372 10.9489C16.5301 10.8273 16.523 10.7057 16.5157 10.5805C16.4709 9.26325 16.4709 9.26325 16.7852 8.57426C17.5948 7.74329 18.341 7.60009 19.4363 7.89716Z" fill="white"/>
</svg>
