<svg width="70" height="63" viewBox="0 0 70 63" fill="none" xmlns="http://www.w3.org/2000/svg">
<path d="M16.7631 61.2172C17.018 61.5734 17.3541 61.8637 17.7436 62.0641C18.133 62.2646 18.5646 62.3693 19.0026 62.3698H50.9974C51.4361 62.37 51.8685 62.2656 52.2587 62.0653C52.6489 61.8649 52.9857 61.5743 53.241 61.2176C53.4964 60.861 53.663 60.4485 53.727 60.0145C53.791 59.5806 53.7505 59.1376 53.6089 58.7224L42.6668 26.341C44.475 24.7724 45.7607 22.6887 46.3518 20.3691C46.9428 18.0494 46.8109 15.6046 45.9737 13.362C45.1366 11.1194 43.6341 9.18612 41.6677 7.82117C39.7012 6.45623 37.3646 5.72477 34.9708 5.72477C32.5771 5.72477 30.2405 6.45623 28.274 7.82117C26.3075 9.18612 24.8051 11.1194 23.9679 13.362C23.1308 15.6046 22.9989 18.0494 23.5899 20.3691C24.1809 22.6887 25.4666 24.7724 27.2749 26.341L16.3327 58.7224C16.2 59.1424 16.1698 59.5881 16.2447 60.0221C16.3196 60.4562 16.4973 60.866 16.7631 61.2172ZM32.2645 28.8942C34.0587 29.3376 35.934 29.3376 37.7282 28.8942L39.603 34.4819H30.397L32.2645 28.8942ZM28.5369 39.9676H41.4632L43.3671 45.6137H26.6329L28.5369 39.9676ZM24.7873 51.1359H45.2127L47.1385 56.8549H22.8469L24.7873 51.1359ZM52.1791 22.0809C53.0304 20.6844 53.4807 19.0805 53.4807 17.445C53.4807 15.8096 53.0304 14.2057 52.1791 12.8092C51.8605 12.3089 51.7196 11.7158 51.7791 11.1256C51.8387 10.5354 52.0952 9.98238 52.5074 9.55577L52.6606 9.40258C52.9408 9.11699 53.2815 8.89784 53.6576 8.76124C54.0336 8.62465 54.4356 8.57409 54.8337 8.61328C55.2319 8.65247 55.6163 8.78041 55.9585 8.9877C56.3007 9.19498 56.5921 9.47634 56.8113 9.81109C58.2486 12.1073 59.0108 14.7616 59.0108 17.4706C59.0108 20.1795 58.2486 22.8338 56.8113 25.1301C56.5921 25.4648 56.3007 25.7462 55.9585 25.9535C55.6163 26.1607 55.2319 26.2887 54.8337 26.3279C54.4356 26.3671 54.0336 26.3165 53.6576 26.1799C53.2815 26.0433 52.9408 25.8242 52.6606 25.5386L52.5074 25.3708C52.0864 24.9417 51.8244 24.3818 51.7647 23.7836C51.705 23.1854 51.8512 22.5847 52.1791 22.0809ZM64.5802 1.75768C68.0918 6.23977 70 11.7694 70 17.4633C70 23.1572 68.0918 28.6868 64.5802 33.1689C64.3434 33.4673 64.046 33.7121 63.7078 33.8873C63.3695 34.0626 62.998 34.1642 62.6176 34.1856C62.2373 34.2069 61.8567 34.1475 61.5009 34.0113C61.1452 33.875 60.8223 33.665 60.5535 33.395L60.466 33.3075C60 32.8438 59.7203 32.2253 59.6799 31.5692C59.6396 30.913 59.8414 30.2649 60.2471 29.7476C63.0059 26.2459 64.5061 21.9176 64.5061 17.4596C64.5061 13.0017 63.0059 8.6734 60.2471 5.17162C59.8526 4.65852 59.6567 4.02013 59.6956 3.37404C59.7345 2.72795 60.0055 2.11765 60.4587 1.65555L60.5316 1.5826C60.7987 1.30602 61.1218 1.08968 61.4792 0.948069C61.8366 0.806461 62.2202 0.742851 62.6042 0.761499C62.9883 0.780148 63.3639 0.880624 63.7059 1.0562C64.0479 1.23178 64.3485 1.4784 64.5875 1.77956L64.5802 1.75768ZM17.8209 12.8676C16.9704 14.2643 16.5206 15.8681 16.5206 17.5034C16.5206 19.1387 16.9704 20.7425 17.8209 22.1392C18.1432 22.641 18.2862 23.2371 18.2266 23.8305C18.167 24.4239 17.9083 24.9796 17.4926 25.4073L17.3394 25.5605C17.0592 25.8461 16.7185 26.0652 16.3424 26.2018C15.9664 26.3384 15.5645 26.3889 15.1663 26.3498C14.7681 26.3106 14.3837 26.1826 14.0415 25.9753C13.6993 25.7681 13.4079 25.4867 13.1887 25.1519C11.7514 22.8557 10.9892 20.2014 10.9892 17.4925C10.9892 14.7835 11.7514 12.1292 13.1887 9.83297C13.4079 9.49823 13.6993 9.21687 14.0415 9.00958C14.3837 8.80229 14.7681 8.67435 15.1663 8.63516C15.5645 8.59597 15.9664 8.64653 16.3424 8.78313C16.7185 8.91972 17.0592 9.13887 17.3394 9.42446L17.4926 9.57765C17.9136 10.0068 18.1756 10.5667 18.2353 11.1649C18.295 11.7631 18.1488 12.3637 17.8209 12.8676ZM5.41978 33.1908C1.9082 28.7087 0 23.1791 0 17.4852C0 11.7913 1.9082 6.26165 5.41978 1.77956C5.65662 1.47763 5.95511 1.22968 6.29536 1.05224C6.6356 0.874792 7.00977 0.771939 7.39291 0.750539C7.77605 0.729138 8.15935 0.789682 8.51724 0.928131C8.87512 1.06658 9.19938 1.27975 9.46837 1.55343L9.5559 1.64096C10.0219 2.10461 10.3016 2.72315 10.342 3.37929C10.3823 4.03543 10.1805 4.68356 9.77475 5.2008C7.01595 8.70258 5.5158 13.0309 5.5158 17.4888C5.5158 21.9468 7.01595 26.275 9.77475 29.7768C10.1761 30.2885 10.3782 30.9284 10.3433 31.5778C10.3084 32.2272 10.039 32.8418 9.58508 33.3075L9.50484 33.3877C9.23755 33.6706 8.91225 33.8923 8.55126 34.0376C8.19026 34.183 7.8021 34.2486 7.41339 34.2298C7.02468 34.2111 6.64461 34.1086 6.29925 33.9292C5.95388 33.7499 5.65138 33.498 5.41248 33.1908H5.41978Z" fill="white"/>
</svg>
